<svg width="24" height="24" viewBox="0 0 24 24" fill="none" xmlns="http://www.w3.org/2000/svg">
<path d="M14.6866 21.6119L11.2239 17.791C10.9851 17.5522 10.6269 17.4328 10.3881 17.4328L5.25372 18.1492C4.4179 18.2686 3.82089 17.4328 4.2985 16.7164L6.92537 12.1791C7.04477 11.9403 7.04477 11.5821 6.92537 11.2239L4.53731 6.56714C4.1791 5.85072 4.77611 5.0149 5.61193 5.1343L10.7463 6.20893C11.1045 6.32833 11.3433 6.20893 11.5821 5.97012L15.403 2.38803C16 1.79102 16.9552 2.14923 17.0746 2.98505L17.6716 8.11937C17.6716 8.47758 17.9104 8.71639 18.1492 8.83579L22.6866 11.4627C23.403 11.8209 23.403 12.8955 22.5672 13.2537L17.791 15.403C17.5522 15.5224 17.3134 15.7612 17.194 16.1194L16.2388 21.2537C16.2388 21.9701 15.2836 22.2089 14.6866 21.6119Z" fill="white"/>
<path d="M14.6866 21.6119L14.5288 21.7548L14.5362 21.7622L14.6866 21.6119ZM11.2239 17.791L11.3816 17.6481L11.3742 17.6407L11.2239 17.791ZM10.3881 17.4328V17.2202H10.3733L10.3587 17.2222L10.3881 17.4328ZM5.25372 18.1492L5.22434 17.9387L5.22366 17.9388L5.25372 18.1492ZM4.2985 16.7164L4.47575 16.8346L4.48249 16.8229L4.2985 16.7164ZM6.92537 12.1791L7.1097 12.2858L7.11552 12.2742L6.92537 12.1791ZM6.92537 11.2239L7.12706 11.1566L7.12193 11.1413L7.11454 11.1268L6.92537 11.2239ZM4.53731 6.56714L4.34714 6.66222L4.34813 6.66415L4.53731 6.56714ZM5.61193 5.1343L5.65558 4.92578L5.642 4.92384L5.61193 5.1343ZM10.7463 6.20893L10.8135 6.00724L10.8018 6.00335L10.7898 6.00084L10.7463 6.20893ZM11.5821 5.97012L11.4366 5.81494L11.4317 5.81979L11.5821 5.97012ZM15.403 2.38803L15.5485 2.54321L15.5533 2.53836L15.403 2.38803ZM17.0746 2.98505L17.2859 2.96048L17.2851 2.95498L17.0746 2.98505ZM17.6716 8.11937H17.8842V8.10706L17.8828 8.09482L17.6716 8.11937ZM18.1492 8.83579L18.256 8.65146L18.2443 8.64564L18.1492 8.83579ZM22.6866 11.4627L22.5798 11.647L22.5915 11.6528L22.6866 11.4627ZM22.5672 13.2537L22.4834 13.0583L22.4799 13.0598L22.5672 13.2537ZM17.791 15.403L17.7037 15.2089L17.696 15.2128L17.791 15.403ZM17.194 16.1194L16.9923 16.0521L16.9877 16.0661L16.985 16.0805L17.194 16.1194ZM16.2388 21.2537L16.0298 21.2148L16.0262 21.2341V21.2537H16.2388ZM10.1836 4.47628C10.2159 4.58918 10.3336 4.65455 10.4465 4.62229C10.5594 4.59004 10.6247 4.47237 10.5925 4.35947L10.1836 4.47628ZM9.39844 0.180364C9.36619 0.0674658 9.24852 0.00209296 9.13562 0.0343495C9.02272 0.0666061 8.95735 0.184277 8.9896 0.297175L9.39844 0.180364ZM22.1871 19.8604C22.2749 19.9384 22.4092 19.9305 22.4873 19.8427C22.5653 19.7549 22.5574 19.6206 22.4696 19.5426L22.1871 19.8604ZM19.2457 16.6769C19.158 16.5989 19.0236 16.6068 18.9456 16.6945C18.8676 16.7823 18.8755 16.9167 18.9632 16.9947L19.2457 16.6769ZM8.51861 23.325C8.47557 23.4343 8.52924 23.5577 8.63849 23.6007C8.74773 23.6438 8.87118 23.5901 8.91422 23.4809L8.51861 23.325ZM10.4665 19.5406C10.5095 19.4313 10.4558 19.3079 10.3466 19.2648C10.2373 19.2218 10.1139 19.2755 10.0708 19.3847L10.4665 19.5406ZM0.232897 11.6083C0.115526 11.6116 0.0230218 11.7094 0.026282 11.8268C0.0295423 11.9441 0.127333 12.0366 0.244703 12.0334L0.232897 11.6083ZM4.54321 11.914C4.66058 11.9107 4.75309 11.8129 4.74983 11.6955C4.74657 11.5782 4.64877 11.4857 4.5314 11.4889L4.54321 11.914ZM19.7281 7.45045C19.6225 7.50167 19.5784 7.62885 19.6296 7.7345C19.6808 7.84015 19.808 7.88428 19.9136 7.83305L19.7281 7.45045ZM23.8539 5.9226C23.9596 5.87138 24.0037 5.7442 23.9525 5.63855C23.9013 5.5329 23.7741 5.48878 23.6684 5.54L23.8539 5.9226ZM14.8441 21.4691L11.3814 17.6482L11.0663 17.9338L14.529 21.7547L14.8441 21.4691ZM11.3742 17.6407C11.0929 17.3594 10.6794 17.2202 10.3881 17.2202V17.6454C10.5743 17.6454 10.8772 17.745 11.0735 17.9413L11.3742 17.6407ZM10.3587 17.2222L5.22434 17.9387L5.2831 18.3598L10.4174 17.6434L10.3587 17.2222ZM5.22366 17.9388C4.88541 17.9871 4.60709 17.8426 4.45903 17.6262C4.31312 17.4129 4.28556 17.1191 4.47539 16.8343L4.12161 16.5985C3.83382 17.0301 3.86596 17.5124 4.10811 17.8663C4.34812 18.2171 4.78622 18.4308 5.28379 18.3597L5.22366 17.9388ZM4.48249 16.8229L7.10936 12.2856L6.74138 12.0726L4.11451 16.6099L4.48249 16.8229ZM7.11552 12.2742C7.26903 11.9671 7.25682 11.5459 7.12706 11.1566L6.72368 11.2911C6.83272 11.6182 6.8205 11.9134 6.73521 12.084L7.11552 12.2742ZM7.11454 11.1268L4.72648 6.47012L4.34813 6.66415L6.73619 11.3209L7.11454 11.1268ZM4.72746 6.47206C4.44881 5.91475 4.90945 5.2487 5.58187 5.34476L5.642 4.92384C4.64277 4.78109 3.90939 5.78668 4.34715 6.66221L4.72746 6.47206ZM5.56838 5.34239L10.7027 6.41702L10.7898 6.00084L5.65549 4.92621L5.56838 5.34239ZM10.679 6.41062C10.8946 6.48248 11.0915 6.48708 11.2762 6.42554C11.4553 6.36585 11.6023 6.25052 11.7324 6.12045L11.4317 5.81979C11.323 5.92852 11.2313 5.9923 11.1417 6.02216C11.0577 6.05017 10.9561 6.05478 10.8135 6.00724L10.679 6.41062ZM11.7275 6.12522L15.5484 2.54313L15.2576 2.23293L11.4367 5.81502L11.7275 6.12522ZM15.5533 2.53836C16.0144 2.07725 16.7671 2.33566 16.8642 3.01511L17.2851 2.95498C17.1433 1.9628 15.9856 1.50478 15.2526 2.2377L15.5533 2.53836ZM16.8634 3.0096L17.4605 8.14393L17.8828 8.09482L17.2858 2.96049L16.8634 3.0096ZM17.459 8.11937C17.459 8.58586 17.7721 8.88489 18.0542 9.02595L18.2443 8.64564C18.0488 8.54789 17.8842 8.36931 17.8842 8.11937H17.459ZM18.0427 9.01978L22.58 11.6466L22.7931 11.2787L18.2558 8.6518L18.0427 9.01978ZM22.5915 11.6528C23.1386 11.9264 23.1605 12.7681 22.4834 13.0583L22.6509 13.4491C23.6455 13.0229 23.6673 11.7153 22.7816 11.2725L22.5915 11.6528ZM22.4799 13.0598L17.7038 15.2091L17.8783 15.5968L22.6544 13.4476L22.4799 13.0598ZM17.696 15.2128C17.4079 15.3568 17.13 15.6392 16.9923 16.0521L17.3957 16.1866C17.4969 15.8832 17.6965 15.6879 17.8861 15.5931L17.696 15.2128ZM16.985 16.0805L16.0298 21.2148L16.4478 21.2926L17.403 16.1583L16.985 16.0805ZM16.0262 21.2537C16.0262 21.4971 15.8719 21.6627 15.6373 21.7185C15.3978 21.7755 15.0847 21.7094 14.8369 21.4616L14.5362 21.7622C14.8854 22.1114 15.3484 22.2244 15.7358 22.1322C16.1281 22.0388 16.4514 21.7268 16.4514 21.2537H16.0262ZM10.5925 4.35947L9.39844 0.180364L8.9896 0.297175L10.1836 4.47628L10.5925 4.35947ZM22.4696 19.5426L19.2457 16.6769L18.9632 16.9947L22.1871 19.8604L22.4696 19.5426ZM8.91422 23.4809L10.4665 19.5406L10.0708 19.3847L8.51861 23.325L8.91422 23.4809ZM0.244703 12.0334L4.54321 11.914L4.5314 11.4889L0.232897 11.6083L0.244703 12.0334ZM19.9136 7.83305L23.8539 5.9226L23.6684 5.54L19.7281 7.45045L19.9136 7.83305Z" fill="white"/>
</svg>
