<svg width="24" height="14" viewBox="0 0 24 14" fill="none" xmlns="http://www.w3.org/2000/svg">
<g clip-path="url(#clip0)">
<path d="M12.7595 11.3924C14.1266 12 15.3418 12 15.7975 12C16.2532 12 16.7089 11.6962 16.4051 11.2405C16.1013 10.9367 15.4937 9.72154 17.4684 9.72154C19.443 9.72154 18.8354 10.9367 18.6835 11.2405C18.3797 11.6962 18.8354 12 19.2911 12C19.8987 12 21.1139 12 22.3291 11.3924C21.7215 10.0253 21.7215 8.96205 21.7215 8.35445C21.7215 7.89876 22.0253 7.44306 22.481 7.74686C22.7848 8.05066 24 8.50635 24 6.53167C24 4.55699 22.7848 5.16458 22.481 5.46838C22.0253 5.77218 21.7215 5.31648 21.7215 4.86078C21.7215 4.25319 21.7215 3.038 22.3291 1.82281C20.962 1.21522 19.7468 1.21522 19.2911 1.21522C18.8354 1.21522 18.3797 1.51901 18.6835 1.97471C18.9873 2.27851 19.5949 3.4937 17.6203 3.4937C15.6456 3.4937 16.2532 2.27851 16.4051 1.97471C16.7089 1.51901 16.2532 1.21522 15.7975 1.21522C15.1899 1.21522 13.9747 1.21522 12.7595 1.82281C13.3671 3.1899 13.3671 4.25319 13.3671 4.86078C13.3671 5.31648 13.0633 5.77218 12.6076 5.46838C12.3038 5.16458 11.0886 4.70889 11.0886 6.68357C11.0886 8.65825 12.3038 8.05066 12.6076 7.74686C13.0633 7.44306 13.3671 7.89876 13.3671 8.35445C13.3671 8.81015 13.3671 10.0253 12.7595 11.3924Z" fill="#1E1E1C"/>
<path d="M0.607595 1.82278C0 3.18987 0 4.25316 0 4.86076C0 5.31646 0.303797 5.77215 0.759494 5.46835C1.06329 5.16456 2.27848 4.55696 2.27848 6.53165C2.27848 8.50633 1.06329 7.89873 0.759494 7.74684C0.303797 7.29114 0 7.89873 0 8.35443C0 8.96203 0 10.1772 0.607595 11.3924C1.97468 10.7848 3.03797 10.7848 3.64557 10.7848C4.10127 10.7848 4.55696 11.0886 4.25316 11.5443C3.94937 11.8481 3.49367 13.0633 5.46835 13.0633C7.44304 13.0633 6.83544 11.8481 6.53165 11.5443C6.22785 11.0886 6.68354 10.6329 7.13924 10.6329C7.74683 10.6329 8.96202 10.6329 10.1772 11.2405C10.7848 9.87342 10.7848 8.65823 10.7848 8.20253C10.7848 7.74684 10.481 7.29114 10.0253 7.59494C9.72152 7.89873 8.50633 8.50633 8.50633 6.53165C8.50633 4.55696 9.72152 5.16456 10.0253 5.31646C10.481 5.62025 10.7848 5.16456 10.7848 4.70886C10.7848 4.10127 10.7848 2.88608 10.1772 1.67089C8.81013 2.27848 7.59494 2.27848 7.13924 2.27848C6.68354 2.27848 6.07595 1.97468 6.53165 1.51899C6.83544 1.21519 7.29114 0 5.31646 0C3.34177 0 3.94937 1.21519 4.25316 1.51899C4.55696 1.97468 4.10127 2.43038 3.64557 2.43038C3.03797 2.43038 1.82278 2.27848 0.607595 1.82278Z" fill="#1E1E1C"/>
</g>
<defs>
<clipPath id="clip0">
<rect width="24" height="13.0633" fill="white"/>
</clipPath>
</defs>
</svg>
