<svg width="20" height="24" viewBox="0 0 20 24" fill="none" xmlns="http://www.w3.org/2000/svg">
<path d="M11.0345 5.10349C11.7241 4.82763 12.4138 4.2759 12.6897 3.44832C13.3793 1.79314 12.2759 0.689696 11.5862 0.275903C11.4483 0.137972 11.4483 0.137972 11.4483 0.413834C12.5517 2.89659 4.82759 4.00004 6.34484 5.51728C6.20691 5.51728 6.20691 5.51728 6.20691 5.51728C2.75863 6.89659 0.137939 10.3449 0.137939 14.3449C0.137939 19.5862 4.4138 23.7242 9.51725 23.7242C14.7586 23.7242 18.8966 19.4483 18.8966 14.3449C19.0345 9.65521 15.5862 5.79314 11.0345 5.10349ZM9.65518 22.2069C5.37932 22.2069 1.79311 18.6207 1.79311 14.3449C1.79311 10.069 5.37932 6.4828 9.65518 6.4828C13.931 6.4828 17.5172 10.069 17.5172 14.3449C17.3793 18.6207 13.931 22.2069 9.65518 22.2069Z" fill="#1E1E1C" stroke="#1E1E1C" stroke-width="0.2835" stroke-miterlimit="10"/>
<path d="M13.1035 16.2759C12.6897 16.6897 12.1379 17.1035 11.5862 17.3793C10.3448 17.931 8.96553 17.931 7.72415 17.3793C7.17242 17.1035 6.6207 16.8276 6.20691 16.2759C5.93104 16 5.37932 16 5.10346 16.2759C4.8276 16.5517 4.8276 17.1035 5.10346 17.3793C5.65518 17.931 6.34484 18.4828 7.17242 18.7586C7.86208 19.0345 8.68966 19.3103 9.65518 19.3103C10.6207 19.3103 11.4483 19.1724 12.1379 18.7586C12.9655 18.4828 13.6552 17.931 14.2069 17.3793C14.4828 17.1035 14.4828 16.5517 14.2069 16.2759C13.931 16 13.3793 16 13.1035 16.2759Z" fill="#1E1E1C" stroke="#1E1E1C" stroke-width="0.2835" stroke-miterlimit="10"/>
<path d="M6.6207 12.8276C7.58622 12.5517 8.13794 11.7242 8.00001 11.0345C7.72415 10.3448 6.89656 10.069 5.93105 10.3448C4.96553 10.6207 4.4138 11.4483 4.55174 12.138C4.68967 12.6897 5.65518 13.1035 6.6207 12.8276Z" fill="#1E1E1C" stroke="#1E1E1C" stroke-width="0.2835" stroke-miterlimit="10"/>
<path d="M13.2414 10.069C12.2759 9.79316 11.4483 10.069 11.1724 10.8966C11.0345 11.5863 11.7241 12.2759 12.5517 12.5518C13.5172 12.8276 14.3448 12.4139 14.6207 11.7242C14.7586 11.0345 14.2069 10.207 13.2414 10.069Z" fill="#1E1E1C" stroke="#1E1E1C" stroke-width="0.2835" stroke-miterlimit="10"/>
</svg>
