<svg width="41" height="40" viewBox="0 0 41 40" xmlns="http://www.w3.org/2000/svg"><path d="M40 6.6C40 2.9 37.1 0 33.4 0H6.6C2.9 0 0 2.9 0 6.6V33.5C0 37.1 2.9 40.1 6.6 40.1H33.5C37.1 40.1 40.1 37.2 40.1 33.5V6.6H40ZM31 20C31 22 31.2 24.1 31.2 24.1C31.2 24.1 31.2 25.8 30.4 26.6C29.5 27.6 28.5 27.6 28.1 27.7C24.7 28 19.7 28 19.7 28C19.7 28 13.4 27.9 11.5 27.8C11 27.7 9.8 27.7 8.8 26.7C8.1 25.9 8 24.2 8 24.2C8 24.2 8 22 8 20V18.1C8 16.1 8.1 14 8.1 14C8.1 14 8.2 12.3 9 11.5C9.9 10.5 10.9 10.4 11.4 10.3C14.8 10.1 19.8 10 19.8 10C19.8 10 24.9 10.1 28.3 10.3C28.8 10.4 29.8 10.4 30.7 11.4C31.4 12.2 31.3 13.9 31.3 13.9C31.3 13.9 31 16 31 18.1V20Z"/><path d="M17 15.2V22.3L23.6 18.8L20 16.8L17 15.2Z"/></svg>
