<svg width="24" height="24" viewBox="0 0 24 24" fill="none" xmlns="http://www.w3.org/2000/svg">
<path d="M24 12.6234C24 15.7403 24 19.013 24 22.1299C23.6883 23.0649 23.0649 23.2208 22.4415 23.2208C18.2338 23.2208 14.026 23.2208 9.81817 23.2208C7.16882 23.2208 4.51947 23.2208 1.87012 23.2208C1.0909 23.2208 0.467526 22.5974 0.467526 21.8182C0.467526 17.4545 0.467526 13.2468 0.467526 8.88312C0.467526 8.72727 0.467526 8.57143 0.467526 8.41558C0.62337 8.57143 0.62337 8.57143 0.62337 8.57143C2.02597 9.97403 3.27272 11.2208 4.51947 12.4675C4.67532 12.6234 4.67532 12.6234 4.98701 12.6234C6.23376 12.6234 7.63636 12.6234 8.88311 12.6234C9.03895 12.6234 9.03895 12.6234 9.1948 12.6234C7.63636 11.0649 6.07792 9.50649 4.36363 7.79221C4.51947 7.79221 4.51947 7.79221 4.67532 7.79221C5.92207 7.79221 7.01298 7.79221 8.25973 7.79221C8.41558 7.79221 8.57142 7.79221 8.57142 7.94805C10.1299 9.50649 11.5325 10.9091 13.0909 12.4675C13.2467 12.6234 13.2467 12.6234 13.4026 12.6234C14.8052 12.6234 16.0519 12.6234 17.4545 12.6234H17.6104C16.0519 11.0649 14.4935 9.50649 12.7792 7.94805C12.9351 7.94805 12.9351 7.94805 13.0909 7.94805C14.1818 7.94805 15.2727 7.94805 16.3636 7.94805C16.5195 7.94805 16.6753 7.94805 16.6753 8.1039C18.2338 9.66234 19.6364 11.0649 21.1948 12.6234C21.3506 12.7792 21.3506 12.7792 21.5065 12.7792C22.4416 12.6234 23.2208 12.6234 24 12.6234Z" fill="#00abc7"/>
<path d="M0 3.5844C0.155844 3.11687 0.467533 2.80518 0.935065 2.80518C1.09091 2.80518 1.24675 2.80518 1.4026 2.80518C2.02597 2.64934 2.64935 2.64934 3.42857 2.49349C2.33766 3.89609 1.4026 5.14284 0.311688 6.54544C0.155844 5.92206 0.155844 5.45453 0 4.987C0.155844 4.51947 0 4.36362 0 4.05193C0 3.89609 0 3.74025 0 3.5844Z" fill="#00abc7"/>
<path d="M24 10.7532C23.0649 9.81818 22.1299 8.88312 21.039 7.79221C21.974 7.79221 23.0649 7.79221 24 7.79221C24 8.72727 24 9.81818 24 10.7532Z" fill="#00abc7"/>
<path d="M12 5.92208C12.3117 5.61039 12.6234 5.14286 12.9351 4.67532C13.8701 3.42857 14.961 2.02597 15.8961 0.779221C16.052 0.623377 16.052 0.623377 16.2078 0.623377C17.4546 0.311688 18.7013 0.155844 19.9481 0C19.9481 0.155844 19.7922 0.155844 19.7922 0.155844C18.5455 1.87013 17.2987 3.58442 16.052 5.2987C16.052 5.45455 15.8961 5.45455 15.7403 5.45455C14.4935 5.61039 13.4026 5.76623 12.1559 5.92208H12Z" fill="#00abc7"/>
<path d="M11.5325 1.24678C11.5325 1.40262 11.3766 1.40262 11.3766 1.55847C10.1299 3.11691 8.88311 4.8312 7.63636 6.38964C7.63636 6.54548 7.48052 6.70133 7.32467 6.70133C6.23376 6.85717 5.14285 7.01301 4.05194 7.16886C3.8961 7.16886 3.8961 7.16886 3.74026 7.16886C3.74026 7.01301 3.8961 7.01301 3.8961 7.01301C5.14285 5.29873 6.54545 3.58444 7.7922 1.87016C7.7922 1.71431 7.94805 1.71431 8.10389 1.71431C9.35065 1.55847 10.4416 1.40262 11.5325 1.24678Z" fill="#00abc7"/>
<path d="M23.3766 0.779221C23.5325 1.71429 23.6883 2.49351 23.6883 3.27273C23.6883 3.74026 23.3766 4.20779 22.9091 4.36364C22.1299 4.51948 21.1948 4.67532 20.4156 4.67532C21.3507 3.42857 22.2857 2.18182 23.3766 0.779221Z" fill="#00abc7"/>
</svg>
