<svg width="24" height="15" viewBox="0 0 24 15" fill="none" xmlns="http://www.w3.org/2000/svg">
<path d="M23.6044 6.32967C19.7802 2.10989 15.956 0 11.8681 0C11.8681 0 11.8681 0 11.7363 0C7.78022 0 3.95604 2.10989 0.395604 6.32967C0.395604 6.32967 0.395604 6.32967 0.263736 6.32967C0.131868 6.59341 0 6.85714 0 7.12088C0 7.38462 0.131868 7.64835 0.263736 7.91209C0.263736 7.91209 0.263736 7.91209 0.395604 7.91209C3.95604 12 7.78022 14.1099 11.7363 14.2418C11.7363 14.2418 11.7363 14.2418 11.8681 14.2418C15.956 14.2418 19.7802 12.1319 23.4725 7.91209C23.4725 7.91209 23.6044 7.91209 23.6044 7.78022C23.8681 7.64835 23.8681 7.38462 23.8681 7.12088C24 6.85714 23.8681 6.59341 23.6044 6.32967ZM12 11.3407C9.62637 11.3407 7.64835 9.36264 7.64835 6.98901C7.64835 4.61538 9.62637 2.63736 12 2.63736C14.3736 2.63736 16.3516 4.61538 16.3516 6.98901C16.3516 9.36264 14.3736 11.3407 12 11.3407ZM2.10989 7.12088C3.42857 5.67033 4.61538 4.61538 5.93407 3.69231C5.40659 4.61538 5.14286 5.8022 5.14286 6.98901C5.14286 8.30769 5.53846 9.4945 6.1978 10.5494C4.74725 9.62637 3.42857 8.57143 2.10989 7.12088ZM17.8022 10.4176C18.4615 9.36264 18.7253 8.17582 18.7253 6.98901C18.7253 5.8022 18.4615 4.74725 17.9341 3.82418C19.2527 4.61538 20.4396 5.67033 21.7582 7.12088C20.4396 8.43956 19.1209 9.62637 17.8022 10.4176Z" fill="#00abc7"/>
<path d="M12 5.53845C11.0769 5.53845 10.4176 6.32966 10.4176 7.12087C10.4176 8.04395 11.2088 8.70329 12 8.70329C12.9231 8.70329 13.5824 7.91208 13.5824 7.12087C13.5824 6.19779 12.9231 5.53845 12 5.53845Z" fill="#00abc7"/>
</svg>
