<svg width="20" height="24" viewBox="0 0 20 24" fill="none" xmlns="http://www.w3.org/2000/svg">
<path d="M17.1979 24C12.1925 24 7.31551 24 2.31016 24C2.05348 23.8717 1.66845 23.8717 1.41176 23.615C0.385027 23.1016 0 22.2032 0 21.0481C0 15.016 0 8.98396 0 2.82353C0 2.82353 0 2.69519 0 2.56684C0.128342 1.41176 0.641711 0.641711 1.66845 0.256684C1.92513 0.128342 2.18182 0.128342 2.31016 0C7.31551 0 12.1925 0 17.1979 0C17.4545 0.128342 17.8396 0.128342 18.0963 0.385027C19.123 0.898396 19.508 1.79679 19.508 2.95187C19.508 8.98396 19.508 15.1444 19.508 21.1765C19.508 21.3048 19.508 21.4332 19.508 21.5615C19.508 22.7166 18.6096 23.615 17.5829 24C17.5829 23.8717 17.4545 24 17.1979 24ZM2.18182 10.9091C2.18182 13.6043 2.18182 16.2995 2.18182 18.8663C2.18182 19.3797 2.31016 19.6364 2.95187 19.6364C7.57219 19.6364 12.1925 19.6364 16.6845 19.6364C17.1979 19.6364 17.4545 19.508 17.4545 18.8663C17.4545 13.6043 17.4545 8.2139 17.4545 2.95187C17.4545 2.4385 17.3262 2.18182 16.6845 2.18182C12.0642 2.18182 7.57219 2.18182 2.95187 2.18182C2.31016 2.18182 2.18182 2.31016 2.18182 2.95187C2.18182 5.51872 2.18182 8.2139 2.18182 10.9091ZM10.9091 21.8182C10.9091 21.1765 10.3957 20.6631 9.88235 20.6631C9.24064 20.6631 8.72727 21.1765 8.72727 21.6898C8.72727 22.3315 9.24064 22.8449 9.75401 22.8449C10.3957 22.8449 10.9091 22.4599 10.9091 21.8182Z" fill="white"/>
</svg>
