<svg width="24" height="23" viewBox="0 0 24 23" fill="none" xmlns="http://www.w3.org/2000/svg">
<path d="M23.6488 7.81541C24.1171 6.87882 24.1171 6.05931 23.6488 5.35687C22.8293 4.06906 20.839 2.43004 18.8488 1.49345C16.039 0.0885759 12.878 -0.379717 11.239 0.322722C10.8878 0.556869 10.3024 1.14223 10.0683 2.07882L9.36585 3.95199C8.54634 6.29345 7.60976 9.10321 7.14146 9.92272C7.14146 10.0398 6.90732 10.1569 6.79024 10.2739C6.5561 10.2739 6.43902 10.2739 6.32195 10.1569C5.73659 9.68858 5.15122 9.45443 4.56585 9.22028C4.21463 9.22028 3.98049 9.22028 3.62927 9.22028C1.87317 9.22028 0.468293 10.2739 0.117073 11.913C0 12.1471 0 12.3813 0 12.7325C0.117073 14.3715 1.2878 15.6593 3.0439 16.1276C4.91707 16.5959 6.43902 15.8935 7.37561 13.9032C7.49268 13.6691 7.60976 13.552 7.60976 13.4349C7.60976 13.4349 9.48293 9.33736 10.5366 7.23004C11.0049 6.29345 11.5902 5.70809 12.4098 5.70809C13.1122 5.70809 13.8146 5.94223 14.2829 6.05931H14.5171C16.3902 6.64467 18.7317 7.58126 19.6683 8.75199C19.9024 9.10321 20.6049 9.92272 19.5512 11.5617C18.6146 13.2008 17.9122 14.1374 17.3268 14.8398C17.0927 15.191 16.8585 15.4252 16.7415 15.6593C16.6244 15.7764 16.5073 15.8935 16.2732 15.8935C16.1561 15.8935 15.922 15.8935 15.8049 15.7764C15.2195 15.191 14.4 14.7227 13.4634 14.4886C13.1122 14.3715 12.761 14.3715 12.4098 14.3715C11.5902 14.3715 10.7707 14.6057 10.1854 14.9569C9.13171 15.5422 8.42927 16.4788 8.19512 17.5325C8.07805 17.8837 8.07805 18.2349 8.07805 18.5861C8.19512 20.4593 9.6 22.0983 11.5902 22.5666C13.5805 23.0349 15.2195 22.4496 16.3902 20.6935C17.4439 19.5227 23.4146 8.40077 23.6488 7.81541Z" fill="#00abc7"/>
</svg>
