<svg width="23" height="24" viewBox="0 0 23 24" fill="none" xmlns="http://www.w3.org/2000/svg">
<path d="M15.685 14.3622V22.4882H1.51181V7.93699L4.91339 4.53541H12.4724L14.3622 3.0236H4.15748L0 7.18108V24H17.1969V13.0393L15.685 14.3622Z" fill="#1E1E1C"/>
<path d="M4.91339 7.93701V3.77953H4.15748L0.755907 6.99213L1.13386 7.93701H4.91339Z" fill="#1E1E1C"/>
<path d="M13.4173 14.7402C13.2283 14.7402 13.0394 14.7402 13.0394 14.5512C12.8504 14.3623 12.8504 13.9843 13.0394 13.7953C13.0394 13.7953 13.2283 13.6064 13.2283 13.4174C13.2283 13.2284 12.8504 13.0394 12.6614 12.8504C12.2835 12.6615 12.2835 12.4725 12.2835 12.2835C12.4724 11.7166 12.2835 11.3386 12.0945 10.9607C11.7165 10.3938 11.1496 10.3938 10.9606 10.3938C10.5827 10.3938 10.3937 10.2048 10.3937 9.82682C10.3937 9.44887 10.2047 9.44887 10.2047 9.25989C10.0157 9.07092 9.44882 9.25989 9.25984 9.25989C8.88189 9.25989 8.69291 9.07092 8.50394 8.88194C8.50394 8.50399 8.69291 8.31501 8.88189 8.12604C9.07087 8.12604 10.0157 7.93706 10.7717 8.50399C11.1496 8.50399 11.3386 8.88194 11.3386 9.25989C11.9055 9.44887 12.4724 9.63785 12.8504 10.2048C13.2283 10.7717 13.4173 11.3386 13.2283 12.0945C13.9843 12.4725 14.1732 12.8504 14.1732 13.2284C14.3622 13.9843 13.7953 14.5512 13.7953 14.5512C13.6063 14.7402 13.4173 14.7402 13.4173 14.7402Z" fill="#1E1E1C"/>
<path d="M5.48032 15.874L9.82677 14.9292C9.6378 14.5512 9.44882 13.9843 9.07087 13.4173C8.50394 12.8504 7.93701 12.4725 7.37008 12.0945L5.48032 15.874Z" fill="#1E1E1C"/>
<path d="M13.7953 13.6063L6.4252 15.1181L9.82677 8.31496L19.8425 0.377953C19.4646 0.377953 19.0866 0.188976 18.7087 0L9.07087 7.55906L8.88189 7.74803L4.91339 15.685C4.72441 15.874 4.91339 16.063 4.91339 16.252C5.10236 16.4409 5.10236 16.4409 5.29134 16.4409C5.29134 16.4409 5.29134 16.4409 5.48032 16.4409L14.1732 14.5512C14.1732 14.5512 14.3622 14.5512 14.3622 14.3622L22.4882 8.12599V6.80315L13.7953 13.6063Z" fill="#1E1E1C"/>
<path d="M10.5827 9.82677C10.7717 10.0157 10.7717 10.0157 10.9606 10.0157C11.1496 10.0157 11.1496 10.0157 11.3386 9.82677L21.5433 1.88976C21.3543 1.51181 20.9764 1.32283 20.7874 0.944882L10.7717 9.07087C10.5827 9.25984 10.3937 9.63779 10.5827 9.82677Z" fill="#1E1E1C"/>
<path d="M22.4882 4.15744L12.6614 11.7165C12.4724 11.9055 12.4724 12.2834 12.6614 12.4724C12.8504 12.6614 12.8504 12.6614 13.0394 12.6614C13.2283 12.6614 13.2283 12.6614 13.4173 12.4724L22.4882 5.2913V4.91334C22.4882 4.53539 22.4882 4.34641 22.4882 4.15744Z" fill="#1E1E1C"/>
</svg>
