<svg width="24" height="22" viewBox="0 0 24 22" fill="none" xmlns="http://www.w3.org/2000/svg">
<path d="M24 15.7157C23.8782 15.3503 23.3909 15.1066 23.0254 15.3503L20.7107 16.203C20.1015 16.3249 19.8579 15.8376 20.3452 15.3503L22.9035 13.1574C23.269 12.9137 23.269 12.4264 23.0254 12.0609C22.7817 11.6954 22.2944 11.6954 21.9289 11.9391L19.4924 14.132C18.8832 14.4975 18.6396 14.132 19.1269 13.401L20.7107 10.4772C20.8325 10.2335 20.7107 9.7462 20.3452 9.50254C19.9797 9.25889 19.4924 9.38071 19.2487 9.7462L17.2995 13.0355C17.0558 13.401 16.5685 13.1574 16.6903 12.5482L17.0558 9.62437C17.1777 9.25889 16.8122 8.77158 16.4467 8.77158C16.0812 8.64975 15.5939 9.01523 15.5939 9.38071L14.9848 13.6447C14.8629 14.0102 14.8629 14.2538 14.8629 14.3756C14.7411 14.8629 14.7411 15.3503 14.3756 15.5939C14.0101 15.8376 13.6447 15.5939 13.2792 14.8629C12.9137 14.132 12.3046 13.7665 11.8173 13.5228C11.2081 13.2792 10.4771 13.401 10.2335 13.7665C9.98984 14.132 10.4772 14.4975 10.9645 15.1066C11.5736 15.7157 12.0609 16.6904 12.0609 17.9086C12.0609 19.1269 12.3046 19.8579 13.2792 20.8325C14.2538 21.8071 15.9594 22.1726 17.1777 21.8071C18.3959 21.4416 19.1269 20.8325 19.736 19.736C20.1015 19.1269 20.467 18.6396 21.0761 18.1523C21.198 18.0305 21.5634 17.7868 21.9289 17.5432L23.7563 16.8122C24 16.4467 24.1218 16.0812 24 15.7157Z" fill="#00abc7"/>
<path d="M-1.59339e-06 6.94416C0.121826 6.57868 0.609135 6.33503 0.974618 6.57868L3.28934 7.5533C3.89848 7.67513 4.14213 7.18782 3.65482 6.70051L1.21827 4.50761C0.85279 4.26396 0.85279 3.77665 1.09644 3.41117C1.3401 3.04569 1.82741 3.04569 2.19289 3.28934L4.62944 5.48223C5.23858 5.84772 5.48223 5.48223 4.99492 4.75127L3.41117 1.94924C3.16751 1.46193 3.28934 1.09645 3.65482 0.852792C4.0203 0.609137 4.50761 0.730964 4.75127 1.09645L6.70051 4.38579C6.94416 4.75127 7.43147 4.62944 7.30964 4.0203L6.94416 0.852792C6.94416 0.48731 7.18781 0.121827 7.5533 0C8.04061 0 8.40609 0.243655 8.52792 0.609137L9.13705 4.8731C9.25888 5.23858 9.25888 5.48223 9.25888 5.60406C9.38071 6.09137 9.38071 6.57868 9.74619 6.82233C10.1117 7.06599 10.4772 6.82234 10.8426 6.09137C11.2081 5.36041 11.8173 4.99492 12.3046 4.75127C12.9137 4.50761 13.6447 4.62944 13.8883 4.99492C14.132 5.36041 13.6447 5.72589 13.1574 6.33503C12.5482 6.94416 12.0609 7.91878 12.0609 9.13706C12.0609 10.3553 11.8173 11.0863 10.8426 12.0609C9.74619 13.0355 8.04061 13.401 6.82233 13.0355C5.60406 12.6701 4.87309 11.9391 4.38578 10.9645C4.0203 10.3553 3.65482 9.74619 3.04568 9.25888C2.92386 9.13706 2.55837 8.8934 2.19289 8.64975L0.487308 7.91878C0.121826 7.79695 -0.121829 7.43147 -1.59339e-06 6.94416Z" fill="#00abc7"/>
</svg>
