<svg width="24" height="22" viewBox="0 0 24 22" fill="none" xmlns="http://www.w3.org/2000/svg">
<g clip-path="url(#clip0)">
<path d="M19.3381 8.11511C19.5108 8.80576 19.6835 9.66906 19.6835 10.5324C19.6835 15.5396 15.7122 19.5108 10.705 19.5108C5.69784 19.5108 1.72662 15.5396 1.72662 10.5324C1.72662 5.52518 5.69784 1.55396 10.705 1.55396C12.4317 1.55396 13.9856 2.07194 15.3669 2.76259C15.5396 2.41727 15.8849 2.07194 16.2302 1.72662C14.5036 0.690647 12.6043 0 10.5324 0C4.66187 0 0 4.66187 0 10.5324C0 16.4029 4.66187 21.0647 10.5324 21.0647C16.4029 21.0647 21.0647 16.4029 21.0647 10.5324C21.0647 9.32374 20.8921 8.28777 20.5468 7.2518C20.2014 7.59712 19.6835 7.76978 19.3381 8.11511Z" fill="#00abc7"/>
<path d="M3.97122 8.28776C4.31655 7.94243 4.66187 7.59711 5.17986 7.42445C5.69784 7.25179 6.38849 7.25179 6.90648 7.59711C7.94245 8.28776 10.1871 11.223 10.8777 12.6043C12.4317 8.1151 16.5755 2.41725 20.2014 0.690634C21.0647 0.34531 21.7554 0.690634 22.446 1.03596C22.7914 1.20862 23.482 1.72661 23.6547 1.89927C24 2.24459 24.6906 2.93524 24 3.28056C19.5108 5.35251 15.0216 9.49639 12.6043 15.7122C12.259 16.7482 11.9137 17.2662 11.0504 17.2662C10.1871 17.2662 9.66907 17.0935 9.4964 16.4029C9.32374 15.7122 7.76978 13.8129 6.90648 12.6043C5.69784 11.741 4.14389 10.3597 3.6259 9.84171C3.10791 9.32373 3.45324 8.80574 3.97122 8.28776Z" fill="#00abc7"/>
</g>
<defs>
<clipPath id="clip0">
<rect width="24" height="21.0647" fill="white"/>
</clipPath>
</defs>
</svg>
