<svg width="24" height="25" viewBox="0 0 24 25" fill="none" xmlns="http://www.w3.org/2000/svg">
<path d="M2.72164 18.0619C1.85566 17.3196 1.73195 16.7011 1.97938 15.9588C2.2268 15.4639 2.47422 14.8454 2.72164 14.3505C3.71133 12.1237 3.71133 12.1237 1.60824 11.0103C0.247416 10.1444 -0.37114 8.53611 0.247416 7.17529C0.865973 5.56704 2.47422 4.82477 4.08247 5.44333C4.4536 5.56704 4.94845 5.69075 5.31958 5.93818C6.18556 6.55673 6.55669 6.1856 6.92783 5.44333C8.90721 1.97941 8.90721 1.97941 12.4948 3.46395C13.4845 3.83508 13.8557 3.58766 14.2268 2.59797C15.0928 0.494877 16.5773 -0.247391 18.1856 0.247454C20.1649 0.989722 21.0309 2.84539 19.7938 4.70106C18.9278 5.93818 19.0515 6.80416 20.5361 7.299C25.3608 9.15467 24 10.1444 22.5155 13.1134C21.6495 14.8454 21.6495 14.8454 20.1649 13.6083C19.0515 12.6186 17.567 12.6186 16.5773 13.4846C15.7113 14.3505 15.5876 15.4639 16.3299 16.5773C16.9484 17.4433 17.8144 17.567 18.8041 17.6908C20.0412 17.6908 20.1649 18.3093 19.6701 19.299C19.0515 20.6598 18.433 21.8969 17.8144 23.2578C17.3196 24.3712 16.4536 24.7423 15.2165 24.2475C13.8557 23.6289 12.3711 22.8866 11.0103 22.2681C10.1443 21.8969 9.8969 21.4021 10.7629 20.7835C11.134 20.5361 11.3814 20.165 11.6289 19.7938C12.1237 18.9279 12.3711 17.9382 11.6289 17.0722C11.0103 16.2062 10.268 15.9588 9.27834 16.0825C8.16494 16.3299 7.54639 16.9485 7.42267 18.0619C7.42267 18.1856 7.42267 18.5567 7.42267 18.9279C7.42267 19.5464 7.05154 19.9176 6.43298 19.6701C5.07216 19.1753 3.71133 18.433 2.72164 18.0619Z" fill="white"/>
</svg>
