<svg width="24" height="24" viewBox="0 0 24 24" fill="none" xmlns="http://www.w3.org/2000/svg">
<path d="M2.33333 20.3334C1.5 20.3334 0.833333 19.6667 0.833333 18.8334C0.833333 18 1.5 17.3333 2.33333 17.3333H9.16667C10 17.3333 10.6667 18 10.6667 18.8334C10.6667 19.6667 10 20.3334 9.16667 20.3334H2.33333Z" fill="#00abc7"/>
<path d="M16 4.99997C15 4.99997 14.3333 4.3333 14.3333 3.49997C14.3333 2.66663 15 1.99997 15.8333 1.99997H22.3333C23.1667 1.99997 23.8333 2.66663 23.8333 3.49997C24 4.3333 23.3333 4.99997 22.5 4.99997H16Z" fill="#00abc7"/>
<path d="M16 9.50002C15 9.50002 14.3333 8.83335 14.3333 8.00002C14.3333 7.16668 15 6.50002 15.8333 6.50002H22.3333C23.1667 6.50002 23.8333 7.16668 23.8333 8.00002C23.8333 8.83335 23.1667 9.50002 22.3333 9.50002H16Z" fill="#00abc7"/>
<path d="M1.5 7.33333C0.666667 7.33333 0 6.5 0 5.66667C0 4.83333 0.666667 4.16667 1.5 4.16667H9.83333C10.6667 4.16667 11.3333 4.83333 11.3333 5.66667C11.3333 6.5 10.6667 7.16667 9.83333 7.16667L1.5 7.33333Z" fill="#00abc7"/>
<path d="M4.16667 1.5C4.16667 0.666667 4.83333 0 5.66667 0C6.5 0 7.16667 0.666667 7.16667 1.5V9.83333C7.16667 10.6667 6.5 11.3333 5.66667 11.3333C4.83333 11.3333 4.16667 10.6667 4.16667 9.83333V1.5Z" fill="#00abc7"/>
<path d="M15.1667 17C14.5 16.3333 14.5 15.3333 15.1667 14.8333C15.8333 14.1667 16.6667 14.1667 17.3333 14.8333L23.1667 20.6667C23.8333 21.3333 23.8333 22.3333 23.1667 22.8333C22.5 23.5 21.6667 23.5 21 22.8333L15.1667 17Z" fill="#00abc7"/>
<path d="M21 14.6667C21.6667 14 22.6667 14 23.1667 14.6667C23.8333 15.3333 23.8333 16.1667 23.1667 16.8333L17.3333 22.6667C16.6667 23.3333 15.6667 23.3333 15.1667 22.6667C14.5 22 14.5 21.1667 15.1667 20.5L21 14.6667Z" fill="#00abc7"/>
</svg>
