<svg width="20" height="19" viewBox="0 0 20 19" fill="none" xmlns="http://www.w3.org/2000/svg">
<path d="M8.95337 2.0933C8.95337 2.96377 8.33161 3.58553 7.46114 3.58553C6.59067 3.58553 5.96891 2.96377 5.96891 2.0933C5.96891 1.22284 6.59067 0.601074 7.46114 0.601074C8.20726 0.601074 8.95337 1.34719 8.95337 2.0933Z" fill="#1E1E1C"/>
<path d="M19.8964 2.0933C19.8964 2.96377 19.2746 3.58553 18.4041 3.58553C17.5337 3.58553 16.9119 2.96377 16.9119 2.0933C16.9119 1.22284 17.5337 0.601074 18.4041 0.601074C19.2746 0.601074 19.8964 1.34719 19.8964 2.0933Z" fill="#1E1E1C"/>
<path d="M18.4041 11.6684C19.2746 11.6684 19.8964 12.2902 19.8964 13.1607C19.8964 14.0311 19.2746 14.6529 18.4041 14.6529C17.5337 14.6529 16.9119 14.0311 16.9119 13.1607C16.9119 12.2902 17.5337 11.6684 18.4041 11.6684Z" fill="#1E1E1C"/>
<path d="M19.0259 2.09329H17.7824V13.285H19.0259V2.09329Z" fill="#1E1E1C"/>
<path d="M3.23316 16.6425C3.10881 16.6425 2.98446 16.6425 2.8601 16.5182C2.73575 16.3938 2.73575 16.0208 2.98446 15.8964L11.8135 9.05705C11.9378 8.93269 12.3109 8.93269 12.4352 9.1814C12.4352 9.30575 12.4352 9.55446 12.1865 9.67881L3.35751 16.5182C3.35751 16.6425 3.23316 16.6425 3.23316 16.6425Z" fill="#1E1E1C"/>
<path d="M1.61658 14.4042C1.49223 14.4042 1.36787 14.4042 1.24352 14.2798C1.11917 14.1555 1.11917 13.7824 1.36787 13.6581L10.1969 6.81869C10.3212 6.69434 10.6943 6.69434 10.8187 6.94305C10.8187 7.19175 10.8187 7.44046 10.6943 7.56481L1.86528 14.4042C1.74093 14.4042 1.74093 14.4042 1.61658 14.4042Z" fill="#1E1E1C"/>
<path d="M13.1813 10.5493C12.8083 10.5493 12.4352 10.5493 12.1865 10.1762C12.0622 10.0519 11.8135 9.80315 11.8135 9.55444C11.4404 9.43009 10.8187 9.30574 10.5699 8.80833C10.1969 8.31092 10.0725 7.81351 10.0725 7.19175C9.69948 6.94304 9.57513 6.69434 9.45078 6.32128C9.45078 5.69952 9.82383 5.20211 9.82383 5.20211C9.94819 5.07776 10.1969 5.07776 10.4456 5.20211C10.5699 5.32646 10.5699 5.57517 10.4456 5.82387C10.4456 5.82387 10.3212 6.07258 10.3212 6.19693C10.3212 6.44563 10.5699 6.56999 10.8187 6.69434C10.943 6.81869 11.0674 6.94304 10.943 7.19175C10.943 7.56481 10.943 8.06221 11.1917 8.31092C11.4404 8.68398 12.0622 8.80833 12.1865 8.80833C12.4352 8.80833 12.5596 9.05703 12.5596 9.18139C12.5596 9.43009 12.6839 9.55444 12.6839 9.55444C12.9326 9.67879 13.4301 9.67879 13.5544 9.67879C13.8031 9.67879 14.0518 9.80315 14.0518 10.0519C14.0518 10.3006 13.9275 10.5493 13.6788 10.5493C13.6788 10.4249 13.4301 10.5493 13.1813 10.5493Z" fill="#1E1E1C"/>
<path d="M16.6632 4.08295L13.057 4.82906C13.1813 5.20212 13.4301 5.69953 13.6788 6.07259C14.0518 6.57 14.5492 6.94305 15.0466 7.19176L16.6632 4.08295Z" fill="#1E1E1C"/>
<path d="M4.22798 18.0104C4.10363 18.0104 3.97927 18.0104 3.85492 17.886L0 12.912C0 12.912 0 12.7876 0 12.6632C0 12.5389 0.124352 12.4145 0.124352 12.4145L9.20207 5.32646L9.32643 5.20211L16.4145 3.70988C16.5389 3.70988 16.7876 3.70988 16.7876 3.83424C16.9119 3.95859 16.9119 4.08294 16.7876 4.33164L13.5544 10.798L13.4301 10.9223L4.35233 18.0104C4.47668 18.0104 4.35233 18.0104 4.22798 18.0104ZM0.994819 12.7876L4.35233 17.0156L13.057 10.3006L15.7927 4.7047L9.69948 5.94823L0.994819 12.7876Z" fill="#1E1E1C"/>
</svg>
