<svg width="23" height="24" viewBox="0 0 23 24" fill="none" xmlns="http://www.w3.org/2000/svg">
<path d="M18.4036 7.10317H19.9103C19.9103 7.10317 20.0179 5.27357 18.296 3.87447C16.574 2.36774 14.852 3.12111 14.852 3.12111L15.1749 4.41259C15.1749 4.41259 16.4664 3.98209 17.5426 4.9507C18.6188 5.91931 18.4036 7.10317 18.4036 7.10317Z" fill="white"/>
<path d="M21.2018 7.31842L22.7085 7.53366C22.7085 7.53366 23.2466 4.19734 20.0179 1.61438C17.1121 -0.753332 14.2063 0.322901 14.2063 0.322901L14.6368 1.722C14.6368 1.722 17.435 1.07626 19.3722 2.79824C21.3094 4.41259 21.2018 7.31842 21.2018 7.31842Z" fill="white"/>
<path d="M18.9417 9.36326C17.3274 7.96415 13.13 4.30496 13.13 4.30496C13.13 4.30496 11.5157 2.79823 10.4395 4.08971C9.47086 5.05832 0.430497 15.4978 0.430497 15.4978C0.430497 15.4978 -0.860983 16.574 1.07624 18.1884C3.01346 19.8027 7.31839 23.5695 7.31839 23.5695C7.31839 23.5695 8.39462 24.7534 9.90135 22.9238C11.1928 21.4171 19.5875 11.731 19.5875 11.731C19.5875 11.731 20.4484 10.6547 18.9417 9.36326ZM4.62781 19.9103C4.19731 19.5875 4.19731 18.9417 4.52018 18.5112C4.84305 18.0807 5.48879 18.0807 5.91929 18.4036C6.34978 18.7265 6.4574 19.3722 6.02691 19.8027C5.70404 20.2332 5.0583 20.2332 4.62781 19.9103ZM9.79373 20.879L2.90583 14.9597L11.1928 5.27357L18.0807 11.1929L9.79373 20.879Z" fill="white"/>
</svg>
