<svg width="24" height="19" viewBox="0 0 24 19" fill="none" xmlns="http://www.w3.org/2000/svg">
<path d="M2.24176 4.48352C3.47985 4.48352 4.48352 3.47985 4.48352 2.24176C4.48352 1.00367 3.47985 0 2.24176 0C1.00367 0 0 1.00367 0 2.24176C0 3.47985 1.00367 4.48352 2.24176 4.48352Z" fill="#00abc7"/>
<path d="M22.022 4.35163H8.43956C7.38461 4.35163 6.46154 3.42856 6.46154 2.37361V2.24174C6.46154 1.1868 7.38461 0.263721 8.43956 0.263721H22.022C23.0769 0.263721 24 1.1868 24 2.24174V2.37361C24 3.42856 23.0769 4.35163 22.022 4.35163Z" fill="#00abc7"/>
<path d="M2.24176 11.4725C3.47985 11.4725 4.48352 10.4689 4.48352 9.23078C4.48352 7.9927 3.47985 6.98903 2.24176 6.98903C1.00367 6.98903 0 7.9927 0 9.23078C0 10.4689 1.00367 11.4725 2.24176 11.4725Z" fill="#00abc7"/>
<path d="M22.022 11.2088H8.43956C7.38461 11.2088 6.46154 10.2857 6.46154 9.23078V9.09891C6.46154 8.04396 7.38461 7.12089 8.43956 7.12089H22.022C23.0769 7.12089 24 8.04396 24 9.09891V9.23078C24 10.2857 23.0769 11.2088 22.022 11.2088Z" fill="#00abc7"/>
<path d="M2.24176 18.3297C3.47985 18.3297 4.48352 17.326 4.48352 16.0879C4.48352 14.8498 3.47985 13.8462 2.24176 13.8462C1.00367 13.8462 0 14.8498 0 16.0879C0 17.326 1.00367 18.3297 2.24176 18.3297Z" fill="#00abc7"/>
<path d="M22.022 18.0659H8.43956C7.38461 18.0659 6.46154 17.1429 6.46154 16.0879V15.956C6.46154 14.9011 7.38461 13.978 8.43956 13.978H22.022C23.0769 13.978 24 14.9011 24 15.956V16.0879C24 17.2747 23.0769 18.0659 22.022 18.0659Z" fill="#00abc7"/>
</svg>
