<svg width="24" height="19" viewBox="0 0 24 19" fill="none" xmlns="http://www.w3.org/2000/svg">
<path d="M0 7.3774C0.196721 6.59051 0.590164 6.00035 1.27869 5.70527C2.7541 5.01674 4.22951 4.22986 5.70492 3.54133C7.86885 2.45937 10.1311 1.3774 12.2951 0.295432C13.4754 -0.294732 14.7541 0.0987103 15.4426 1.27904C15.9344 2.26264 16.4262 3.14789 16.8197 4.1315C16.8197 4.22986 16.918 4.22986 16.918 4.32822C16.8197 4.32822 16.7213 4.32822 16.623 4.32822C14.1639 4.32822 11.7049 4.32822 9.2459 4.32822C7.67213 4.42658 6.29508 5.41019 5.90164 6.8856C5.90164 7.18068 5.80328 7.47576 5.80328 7.77084C5.80328 10.2299 5.80328 12.6889 5.80328 15.1479C5.80328 15.7381 5.90164 16.3282 6.29508 16.9184C6 17.0167 5.70492 17.0167 5.31148 17.0167C4.62295 16.9184 4.03279 16.5249 3.7377 15.8364C2.55738 13.4758 1.37705 11.1151 0.196721 8.75445C0.0983607 8.45937 0.0983607 8.26264 0 8.06592C0 7.77084 0 7.57412 0 7.3774Z" fill="white"/>
<path d="M24 7.57372C23.6066 6.29503 22.918 5.80323 21.6393 5.80323C17.6066 5.80323 13.5738 5.80323 9.54098 5.80323C8.16393 5.80323 7.18033 6.68848 7.18033 8.16389C7.18033 10.7213 7.18033 13.2786 7.18033 15.7377C7.18033 17.1147 8.06557 18.0983 9.44262 18.0983C13.5738 18.0983 17.6066 18.0983 21.7377 18.0983C22.3279 18.0983 22.918 17.9016 23.4098 17.4098C23.8033 17.0163 23.9016 16.6229 24.0984 16.1311C24 13.2786 24 10.4262 24 7.57372ZM12.6885 15.2459L9.93443 15.836C9.63934 15.9344 9.44262 15.7377 9.44262 15.5409L9.34426 15.2459C9.2459 14.9508 9.34426 14.7541 9.63934 14.7541L10.3279 14.5573L9.83607 12.295C9.83607 12.0983 9.7377 11.9016 9.7377 11.9016C9.7377 11.9016 9.7377 12.0983 9.63934 12.1967L9.54098 12.295C9.34426 12.4918 9.14754 12.5901 8.95082 12.3934L8.7541 12.1967C8.55738 12 8.45902 11.8032 8.65574 11.6065L9.34426 10.5245C9.44262 10.3278 9.63934 10.2295 9.83607 10.2295L10.2295 10.1311C10.5246 10.0327 10.7213 10.2295 10.7213 10.4262L11.6066 14.2622L12.2951 14.0655C12.5902 13.9672 12.7869 14.1639 12.7869 14.3606L12.8852 14.6557C13.082 14.9508 12.8852 15.1475 12.6885 15.2459ZM17.4098 12.9836C17.4098 13.2786 17.3115 13.377 17.0164 13.377H14.0656C13.7705 13.377 13.5738 13.2786 13.5738 12.9836V12.7868C13.5738 10.7213 15.9344 10.4262 15.9344 9.6393C15.9344 9.24585 15.6393 9.04913 15.3443 9.04913C15.1475 9.04913 14.8525 9.14749 14.7541 9.34421C14.5574 9.54094 14.3607 9.6393 14.1639 9.44258L13.8689 9.24585C13.6721 9.04913 13.5738 8.85241 13.7705 8.65569C14.0656 8.36061 14.5574 7.8688 15.4426 7.8688C16.3279 7.8688 17.3115 8.36061 17.3115 9.54094C17.3115 11.2131 15.0492 11.6065 15.0492 12.295H17.0164C17.3115 12.295 17.4098 12.3934 17.4098 12.6885V12.9836ZM22.623 11.2131V11.3114C22.623 11.5081 22.5246 11.6065 22.3279 11.8032L21.2459 12.5901C22.0328 12.9836 22.3279 13.6721 22.2295 14.459C22.0328 15.3442 21.1475 16.1311 19.8689 15.836C19.1803 15.6393 18.6885 15.3442 18.3934 15.0491C18.1967 14.8524 18.2951 14.6557 18.3934 14.459L18.6885 14.1639C18.8852 13.9672 19.082 13.9672 19.2787 14.1639C19.4754 14.3606 19.6721 14.459 19.9672 14.5573C20.459 14.6557 20.7541 14.459 20.8525 14.1639C20.9508 13.7704 20.5574 13.4754 19.9672 13.377C19.7705 13.2786 19.6721 13.1803 19.5738 12.9836V12.8852C19.4754 12.6885 19.5738 12.4918 19.7705 12.3934L20.3607 11.9016C20.6557 11.6065 20.9508 11.5081 20.9508 11.5081C20.9508 11.5081 20.7541 11.5081 20.459 11.4098L19.5738 11.2131C19.2787 11.1147 19.1803 11.0163 19.2787 10.7213L19.3771 10.4262C19.4754 10.1311 19.5738 10.0327 19.8689 10.1311L22.4262 10.7213C22.5246 10.7213 22.623 10.918 22.623 11.2131Z" fill="white"/>
</svg>
