<svg width="24" height="21" viewBox="0 0 24 21" fill="none" xmlns="http://www.w3.org/2000/svg">
<path d="M0 11.3299C0 11.2081 0.121827 10.9645 0.121827 10.8426C0.609137 8.77157 2.31472 7.30964 4.38579 7.30964C5.48223 7.30964 6.45685 7.30964 7.5533 7.30964C7.79695 7.30964 7.79696 7.30964 7.79696 7.5533C7.91878 8.52792 8.28426 9.38071 9.01523 10.1117L9.13706 10.2335C9.13706 10.2335 9.13706 10.2335 9.13706 10.3553C7.79695 10.8426 6.82234 11.5736 6.09137 12.7919C5.36041 14.0102 5.23858 15.2284 5.36041 16.5685C3.533 16.4467 1.70558 16.0812 0 15.4721C0 14.132 0 12.7919 0 11.3299Z" fill="white"/>
<path d="M24 15.4721C22.5381 16.203 20.9543 16.4467 19.2487 16.5685C19.1269 16.5685 19.1269 16.5685 19.0051 16.5685C19.0051 16.5685 19.0051 16.5685 18.8832 16.5685C18.8832 16.4467 18.8832 16.3249 18.8832 16.203C18.8832 15.4721 18.8832 14.6193 18.6396 13.8883C18.2741 12.1827 17.1777 11.0863 15.4721 10.4772C15.3503 10.4772 15.3503 10.4772 15.2284 10.3553C16.0812 9.50254 16.5685 8.52792 16.5685 7.30964C16.6904 7.30964 16.6904 7.30964 16.8122 7.30964C17.7868 7.30964 18.7614 7.30964 19.736 7.30964C21.9289 7.30964 23.7563 9.01523 24.1218 11.2081V11.3299C24 12.6701 24 14.132 24 15.4721Z" fill="white"/>
<path d="M6.2132 17.0558C6.2132 16.3249 6.09137 15.5939 6.2132 14.863C6.57868 12.6701 8.16244 11.0863 10.3553 10.9645C11.5736 10.8427 12.7919 10.8427 14.0102 10.9645C16.4467 11.0863 18.1523 13.0355 18.1523 15.3503C18.1523 16.5685 18.1523 17.665 18.1523 18.8833C18.1523 19.0051 18.0305 19.1269 17.9086 19.1269C17.0558 19.6142 16.0812 19.8579 14.9848 19.9797C11.9391 20.467 9.01523 20.1015 6.2132 19.1269C6.09137 19.1269 6.09137 19.0051 6.09137 18.8833C6.2132 18.2741 6.2132 17.665 6.2132 17.0558Z" fill="white"/>
<path d="M12.1827 10.7208C10.2335 10.7208 8.64975 9.13706 8.64975 7.18782C8.64975 5.23858 10.2335 3.65482 12.1827 3.65482C14.132 3.65482 15.7157 5.23858 15.7157 7.18782C15.7157 9.13706 14.132 10.7208 12.1827 10.7208Z" fill="white"/>
<path d="M2.43655 3.53299C2.43655 1.58376 4.0203 0 5.96954 0C7.91878 0 9.50254 1.46193 9.50254 3.41117C9.50254 3.65482 9.50254 3.77665 9.25888 3.89848C8.52792 4.50761 8.04061 5.36041 7.79695 6.33503C7.79695 6.45685 7.67513 6.57868 7.5533 6.70051C5.36041 7.91878 2.43655 6.2132 2.43655 3.53299Z" fill="white"/>
<path d="M21.5635 3.53299C21.5635 5.96954 19.1269 7.67513 16.8122 6.82233C16.6904 6.82233 16.5685 6.70051 16.5685 6.45685C16.3249 5.23858 15.7157 4.26396 14.7411 3.53299C14.6193 3.41117 14.4975 3.28934 14.6193 3.16751C14.8629 1.70558 15.5939 0.730964 16.934 0.243655C18.2741 -0.243655 19.4924 0 20.5888 0.974619C21.198 1.70558 21.5635 2.55838 21.5635 3.53299Z" fill="white"/>
</svg>
