<svg width="41" height="40" viewBox="0 0 41 40" xmlns="http://www.w3.org/2000/svg"><path d="M41 6.6C41 3 38.1 0 34.4 0H7.5C3.9 0 0.900002 2.9 0.900002 6.6V33.5C0.900002 37.1 3.8 40.1 7.5 40.1H34.4C38 40.1 41 37.2 41 33.5V6.6ZM31 14.2C31 14.4 31 14.6 31 14.8C31 15.8 30.9 16.8 30.7 17.8C29.5 23.4 24.7 28.7 16.9 28.7C14.1 28.7 11.5 27.9 9.3 26.5C9.7 26.5 10.1 26.6 10.5 26.6C12.8 26.6 15 25.8 16.7 24.5C14.5 24.5 12.7 23.1 12.1 21.1C12.4 21.2 12.7 21.2 13 21.2C13.5 21.2 13.9 21.1 14.3 21C12.6 20.7 11.1 19.5 10.5 18C10.3 17.4 10 16.9 10 16.2C10 16.2 10 16.2 10 16.1C11 16.5 11.6 16.7 12.4 16.7C11.1 15.8 10.3 14.3 10.3 12.6C10.3 11.7 10.6 10.9 11 10.1C13.4 13.1 17.1 15 21.2 15.2C21.1 14.8 21.1 14.5 21.1 14.1C21.1 11.4 23.3 9.2 26.1 9.2C27.5 9.2 28.8 9.8 29.7 10.7C30.8 10.5 31.9 10.1 32.9 9.5C32.5 10.6 31.7 11.6 30.7 12.2C31.7 12.1 32.7 11.8 33.5 11.4C32.8 12.6 32 13.5 31 14.2Z"/></svg>
