<svg width="24" height="24" viewBox="0 0 24 24" fill="none" xmlns="http://www.w3.org/2000/svg">
<path d="M12.6197 24C12.3944 23.7747 12.0563 23.4366 11.831 23.2113C12.0563 22.9859 12.3944 22.6479 12.6197 22.4225C12.8451 22.6479 13.1831 22.9859 13.4085 23.2113C13.1831 23.5493 12.8451 23.7747 12.6197 24Z" fill="#00abc7"/>
<path d="M0.788732 10.5916C1.01408 10.8169 1.35211 11.1549 1.57746 11.3803C1.35211 11.6056 1.01408 11.9437 0.788732 12.169C0.56338 11.9437 0.225352 11.6056 0 11.3803C0.225352 11.1549 0.56338 10.9296 0.788732 10.5916Z" fill="#00abc7"/>
<path d="M13.9718 22.6479C13.7465 22.4225 13.4085 22.0845 13.1831 21.8591C13.4085 21.6338 13.7465 21.2958 13.9718 21.0704C14.1972 21.2958 14.5352 21.6338 14.7606 21.8591C14.4225 22.1972 14.1972 22.4225 13.9718 22.6479Z" fill="#00abc7"/>
<path d="M2.14084 9.35212C2.3662 9.57747 2.59155 9.80282 2.92958 10.1409C2.59155 10.3662 2.3662 10.5916 2.14084 10.9296C1.80282 10.5916 1.57746 10.3662 1.35211 10.0282C1.57746 9.80282 1.80282 9.57747 2.14084 9.35212Z" fill="#00abc7"/>
<path d="M15.2113 21.4084C14.9859 21.1831 14.6479 20.8451 14.4225 20.6197C14.6479 20.3944 14.9859 20.0563 15.2113 19.831C15.4366 20.0563 15.7746 20.3944 16 20.6197C15.7746 20.8451 15.5493 21.0704 15.2113 21.4084Z" fill="#00abc7"/>
<path d="M3.38028 8C3.60563 8.22535 3.94366 8.56338 4.16901 8.78873C3.94366 9.01408 3.71831 9.23943 3.49296 9.57746C3.15493 9.23943 2.92958 9.01408 2.70422 8.78873C2.92958 8.4507 3.15493 8.22535 3.38028 8Z" fill="#00abc7"/>
<path d="M16.5634 20.0563C16.338 19.831 16 19.493 15.7746 19.2676C16 19.0423 16.338 18.7042 16.5634 18.4789C16.7887 18.7042 17.1268 19.0423 17.3521 19.2676C17.1268 19.493 16.9014 19.831 16.5634 20.0563Z" fill="#00abc7"/>
<path d="M4.73239 6.64789C4.95775 6.87324 5.29577 7.21127 5.52113 7.43662C5.29577 7.66197 5.07042 8 4.73239 8.22536C4.50704 8 4.28169 7.66197 3.94366 7.43662C4.28169 7.21127 4.50704 6.87324 4.73239 6.64789Z" fill="#00abc7"/>
<path d="M17.9155 18.7042C17.6901 18.4789 17.3521 18.1408 17.1268 17.9155C17.3521 17.6901 17.5775 17.4648 17.9155 17.1268C18.1408 17.3521 18.4789 17.6901 18.7042 17.9155C18.4789 18.1408 18.2535 18.4789 17.9155 18.7042Z" fill="#00abc7"/>
<path d="M6.08451 5.29577C6.30986 5.52112 6.53521 5.74647 6.76056 5.97183L6.87324 6.0845C6.64789 6.42253 6.42254 6.64788 6.08451 6.87323C5.85916 6.64788 5.6338 6.30985 5.29577 6.0845C5.6338 5.85915 5.85916 5.52112 6.08451 5.29577Z" fill="#00abc7"/>
<path d="M19.2676 17.3521C19.0423 17.1268 18.7042 16.7887 18.4789 16.5634C18.7042 16.338 18.9296 16.1127 19.2676 15.7746C19.493 16 19.831 16.338 20.0563 16.5634C19.831 16.9014 19.493 17.1268 19.2676 17.3521Z" fill="#00abc7"/>
<path d="M7.43662 3.94366C7.66197 4.28169 8 4.50704 8.22535 4.73239C8 5.07042 7.66197 5.29577 7.43662 5.52113C7.21127 5.29577 6.87324 5.07042 6.64789 4.73239C6.87324 4.50704 7.21127 4.28169 7.43662 3.94366Z" fill="#00abc7"/>
<path d="M20.6197 16C20.3944 15.7747 20.0563 15.4366 19.831 15.2113C20.0563 14.9859 20.2817 14.7606 20.6197 14.4225C20.8451 14.6479 21.1831 14.9859 21.4085 15.2113C21.0704 15.5493 20.8451 15.7747 20.6197 16Z" fill="#00abc7"/>
<path d="M8.78873 2.70423C9.01409 2.92958 9.23944 3.15493 9.57747 3.49296C9.23944 3.71831 9.01409 3.94366 8.78873 4.28169C8.56338 3.94366 8.22535 3.71831 8 3.38028C8.22535 3.15493 8.45071 2.92958 8.78873 2.70423Z" fill="#00abc7"/>
<path d="M21.8592 14.7606C21.6338 14.5352 21.2958 14.1972 21.0704 13.9718C21.2958 13.7465 21.6338 13.4084 21.8592 13.1831C22.0845 13.4084 22.4225 13.7465 22.6479 13.9718C22.4225 14.1972 22.1972 14.4225 21.8592 14.7606Z" fill="#00abc7"/>
<path d="M10.0282 1.35211C10.2535 1.57746 10.5916 1.91549 10.8169 2.14084C10.5916 2.36619 10.3662 2.59154 10.1408 2.92957C9.80282 2.59154 9.57747 2.36619 9.35211 2.14084C9.57747 1.80281 9.80282 1.57746 10.0282 1.35211Z" fill="#00abc7"/>
<path d="M23.2113 13.4085C22.9859 13.1831 22.6479 12.8451 22.4225 12.6197C22.6479 12.3944 22.9859 12.0563 23.2113 11.831C23.4366 12.0563 23.7746 12.3944 24 12.6197C23.7746 12.8451 23.5493 13.1831 23.2113 13.4085Z" fill="#00abc7"/>
<path d="M11.3803 0C11.6056 0.225352 11.9437 0.56338 12.169 0.788732C11.9437 1.01408 11.6056 1.35211 11.3803 1.57746C11.1549 1.35211 10.9296 1.01408 10.5915 0.788732C10.9296 0.56338 11.1549 0.225352 11.3803 0Z" fill="#00abc7"/>
<path d="M12.6197 1.23943C8.78873 5.07042 5.07042 8.90141 1.23944 12.6197C4.61972 16 8 19.3803 11.3803 22.7606C15.2113 18.9296 18.9296 15.2113 22.7606 11.3803C19.3803 8 16 4.61972 12.6197 1.23943ZM16.5634 9.57746C16.4507 9.80282 14.9859 14.8732 14.6479 15.4366C14.3099 16.2254 13.6338 16.5634 12.8451 16.5634C12.0563 16.5634 11.2676 16 11.0423 15.2113C11.0423 15.0986 11.0423 14.8732 11.0423 14.7606C11.0423 14.3099 11.2676 13.8592 11.6056 13.5211C11.831 13.2958 12.169 13.1831 12.507 13.0704C12.6197 13.0704 12.8451 13.0704 12.9577 13.0704C13.2958 13.0704 13.7465 13.1831 13.9718 13.4084C14.0845 13.4084 14.0845 13.4084 14.1972 13.4084C14.3099 13.4084 14.3099 13.2958 14.3099 13.2958C14.3099 13.1831 14.4225 13.0704 14.5352 12.8451C14.6479 12.507 14.8732 12.0563 15.2113 11.3803C15.5493 10.5915 15.0986 10.3662 14.9859 10.2535C14.5352 9.80281 13.4085 9.69014 12.6197 9.57746H12.507C12.2817 9.57746 11.9437 9.57746 11.7183 9.57746C11.493 9.69014 11.2676 9.91549 11.1549 10.3662C10.9296 11.2676 10.4789 13.0704 10.4789 13.0704C10.4789 13.1831 10.4789 13.1831 10.3662 13.2958C10.1408 14.1972 9.57747 14.6479 8.78873 14.6479C8.11268 14.6479 7.43662 14.1972 7.32395 13.5211C7.32395 13.4084 7.32395 13.2958 7.32395 13.1831C7.32395 12.507 7.88733 11.9437 8.56338 11.831C8.67606 11.831 8.78873 11.831 8.90141 11.831C9.12676 11.831 9.46479 11.9437 9.69014 12.0563C9.80282 12.0563 9.80282 12.0563 9.91549 12.0563C10.0282 12.0563 10.0282 11.9437 10.0282 11.9437C10.1408 11.3803 10.2535 10.1408 10.3662 9.23943L10.4789 8.4507C10.5916 8 10.7042 7.77465 10.9296 7.54929C11.493 7.09859 12.8451 7.09859 14.0845 7.43662C14.9859 7.66197 15.8873 8.22535 16.338 8.67605C16.5634 8.90141 16.6761 9.23943 16.5634 9.57746Z" fill="#00abc7"/>
</svg>
