<svg width="24" height="24" viewBox="0 0 24 24" fill="none" xmlns="http://www.w3.org/2000/svg">
<path d="M22.3903 2.63416C22.6829 3.21953 23.122 3.80489 23.4146 4.39026C24.439 6.73172 24.1464 8.92685 22.6829 11.122C19.4634 7.90246 16.2439 4.68294 12.8781 1.31709C13.6098 0.878065 14.0488 0.585382 14.6342 0.439041C16.9756 -0.439008 19.1707 1.65701e-05 21.2195 1.46343L21.3659 1.60977C21.8049 1.90246 22.0976 2.19514 22.3903 2.63416Z" fill="white"/>
<path d="M11.4146 2.92683C10.6829 3.95122 10.3903 4.97561 10.2439 6.14634C10.0976 7.02439 9.80488 7.7561 9.21952 8.4878C7.7561 10.0976 6.29269 11.8537 4.82927 13.4634C3.36586 15.0732 1.90245 16.8293 0.43903 18.439L0.292689 18.5854C-0.439018 19.3171 5.96046e-06 21.0732 1.46342 22.3902C2.78049 23.7073 4.53659 24.2927 5.2683 23.561C5.41464 23.561 5.56098 23.4146 5.70732 23.4146C5.85367 23.2683 6.00001 23.2683 6.00001 23.1219C8.34147 21.0732 10.6829 19.0244 13.0244 16.9756C13.9024 16.2439 14.6342 15.5122 15.5122 14.9268C16.2439 14.3415 17.122 14.0488 18 13.9024C19.1707 13.7561 20.1951 13.3171 21.0732 12.7317L11.4146 2.92683ZM11.4146 12.5854C12.2927 13.4634 12.2927 14.9268 11.4146 15.8049C10.5366 16.6829 9.07318 16.6829 8.19513 15.8049C7.31708 14.9268 7.31708 13.4634 8.19513 12.5854C9.07318 11.7073 10.5366 11.7073 11.4146 12.5854Z" fill="white"/>
</svg>
