<svg width="24" height="12" viewBox="0 0 24 12" fill="none" xmlns="http://www.w3.org/2000/svg">
<g clip-path="url(#clip0)">
<path d="M24 4.59881C23.8563 5.02995 23.5689 5.31738 23.1377 5.31738H1.00599C0.718563 5.31738 0.57485 5.17366 0.287425 5.02995C0.143713 4.88624 0 4.74253 0 4.4551C0 4.31139 0 4.31139 0 4.16768C0.143713 3.73654 0.431138 3.44911 0.862275 3.44911H22.994C23.2814 3.44911 23.4251 3.59282 23.7126 3.73654C23.8563 3.88025 24 4.16767 24 4.4551V4.59881Z" fill="#1E1E1C"/>
<path d="M7.04192 11.9282C6.61078 11.9282 6.17964 11.7845 6.03593 11.3533L3.59282 6.6108C3.4491 6.32338 3.4491 6.17967 3.59282 5.89224C3.73653 5.74853 3.88024 5.4611 4.02395 5.4611C4.16767 5.4611 4.16767 5.4611 4.31138 5.31739C4.74252 5.17368 5.17365 5.4611 5.31737 5.74853L7.61677 10.491C7.76048 10.7785 7.76048 10.9222 7.61677 11.2096C7.61677 11.497 7.47305 11.7845 7.18563 11.7845C7.18563 11.9282 7.04192 11.9282 7.04192 11.9282Z" fill="#1E1E1C"/>
<path d="M1.72455 11.9282C2.15569 12.0719 2.58683 11.7845 2.73054 11.3533L5.02994 6.6108C5.17365 6.32338 5.17365 6.17967 5.02994 5.89224C5.02994 5.74853 4.88623 5.4611 4.5988 5.4611C4.45509 5.4611 4.45509 5.4611 4.31138 5.31739C4.02395 5.17368 3.59281 5.4611 3.4491 5.74853L1.00599 10.6348C0.862275 10.9222 0.862275 11.0659 1.00599 11.3533C1.1497 11.497 1.29341 11.7845 1.43713 11.7845C1.58084 11.9282 1.58084 11.9282 1.72455 11.9282Z" fill="#1E1E1C"/>
<path d="M5.89222 3.44911H2.73054V7.18564H5.89222V3.44911Z" fill="#1E1E1C"/>
<path d="M6.17964 1.86826C6.17964 0.862275 5.31737 0 4.31138 0C3.30539 0 2.58683 0.862275 2.58683 1.86826C2.58683 2.87425 3.30539 3.59281 4.31138 3.59281C5.31737 3.59281 6.17964 2.87425 6.17964 1.86826Z" fill="#1E1E1C"/>
<path d="M14.6587 11.9282C14.2275 11.9282 13.7964 11.7845 13.6527 11.3533L11.2096 6.6108C11.0659 6.32338 11.0659 6.17967 11.2096 5.89224C11.3533 5.74853 11.497 5.4611 11.6407 5.4611C11.7844 5.4611 11.7844 5.4611 11.9281 5.31739C12.3593 5.17368 12.7904 5.4611 12.9341 5.74853L15.2335 10.491C15.3772 10.7785 15.3772 10.9222 15.2335 11.2096C15.0898 11.497 14.9461 11.6407 14.8024 11.7845C14.8024 11.9282 14.6587 11.9282 14.6587 11.9282Z" fill="#1E1E1C"/>
<path d="M9.34132 11.9282C9.77245 12.0719 10.2036 11.7845 10.3473 11.3533L12.6467 6.6108C12.7904 6.32338 12.7904 6.17967 12.6467 5.89224C12.6467 5.74853 12.503 5.4611 12.2156 5.4611C12.0719 5.4611 12.0719 5.4611 11.9281 5.31739C11.6407 5.17368 11.2096 5.4611 11.0659 5.74853L8.76647 10.6348C8.62275 10.7785 8.62275 11.0659 8.62275 11.3533C8.76647 11.497 8.91018 11.7845 9.05389 11.7845C9.1976 11.9282 9.34132 11.9282 9.34132 11.9282Z" fill="#1E1E1C"/>
<path d="M13.509 3.44911H10.3473V7.18564H13.509V3.44911Z" fill="#1E1E1C"/>
<path d="M13.7964 1.86826C13.7964 0.862275 12.9341 0 11.9281 0C10.9222 0 10.2036 0.862275 10.2036 1.86826C10.2036 2.87425 11.0659 3.73653 12.0719 3.73653C13.0778 3.73653 13.7964 2.87425 13.7964 1.86826Z" fill="#1E1E1C"/>
<path d="M22.2754 11.9281C21.8443 12.0719 21.4132 11.7844 21.2695 11.3533L18.9701 6.61077C18.8263 6.32335 18.8263 6.17963 18.9701 5.89221C19.1138 5.60478 19.2575 5.46107 19.4012 5.31736C19.5449 5.31736 19.5449 5.31736 19.6886 5.17365C20.1198 5.02993 20.5509 5.31736 20.6946 5.7485L22.994 10.6347C22.994 10.7784 22.994 11.0659 22.994 11.3533C22.8503 11.6407 22.7066 11.7844 22.5629 11.9281C22.4192 11.9281 22.4192 11.9281 22.2754 11.9281Z" fill="#1E1E1C"/>
<path d="M16.9581 11.9282C17.3892 12.0719 17.8204 11.7845 17.9641 11.3533L20.2635 6.6108C20.4072 6.32338 20.4072 6.17967 20.2635 5.89224C20.2635 5.74853 20.1198 5.4611 19.976 5.4611C19.8323 5.4611 19.8323 5.4611 19.6886 5.31739C19.2575 5.17368 18.8263 5.4611 18.6826 5.74853L16.3832 10.491C16.2395 10.7785 16.2395 10.9222 16.3832 11.2096C16.5269 11.497 16.6707 11.6407 16.8144 11.7845C16.8144 11.9282 16.9581 11.9282 16.9581 11.9282Z" fill="#1E1E1C"/>
<path d="M21.2695 3.44911H18.1078V7.18564H21.2695V3.44911Z" fill="#1E1E1C"/>
<path d="M21.4132 1.86826C21.4132 0.862275 20.5509 0 19.5449 0C18.5389 0 17.6766 0.862275 17.6766 1.86826C17.6766 2.87425 18.5389 3.73653 19.5449 3.73653C20.6946 3.59281 21.4132 2.87425 21.4132 1.86826Z" fill="#1E1E1C"/>
</g>
<defs>
<clipPath id="clip0">
<rect width="24" height="11.9281" fill="white"/>
</clipPath>
</defs>
</svg>
