<svg width="23" height="21" viewBox="0 0 23 21" fill="none" xmlns="http://www.w3.org/2000/svg">
<path d="M10.4 20.2C14.4999 20.2 17.9 19.4 21 17.7C21.4 17.5 21.5 17.3 21.2 16.9C21 16.6 20.9 16.4 20.7 16.1C20.6 15.9 20.4 15.8 20.2 16C18.8 16.8 17.3 17.4 15.8 17.8C11 18.9 6.39995 18.3 2.09995 16C1.69995 15.8 1.59995 15.8 1.39995 16.2C1.29995 16.5 1.09995 16.7 0.89995 17C0.69995 17.3 0.79995 17.5 1.09995 17.7C3.09995 18.8 5.19995 19.6 7.49995 19.9C8.59995 20 9.79995 20.1 10.4 20.2Z" fill="#00ABC7"/>
<path d="M22 5.5C21.6 4.7 21.2 3.9 20.7 3.2C20.2 2.5 19.8 1.7 19.8 0.8C19.8 0.5 19.7 0.3 19.6 0C16.8 1.1 14.3 2.3 13 5.2C12.9 5.4 12.8 5.5 12.8 5.7C12.1 7.2 10.9 7.7 9.3 7.6C8.6 7.6 7.9 7.8 7.1 7.8C6.9 7.8 6.7 7.8 6.6 7.7C5.7 7.1 4.7 6.8 3.6 7.1C3 7.2 2.6 7.5 2.4 8.1C2 9.3 1.2 9.8 0 9.8C0 9.9 0 10 0 10C0.6 10.2 1.2 10.5 1.8 10.6C2.7 10.8 3.5 10.4 4.1 9.7C4.4 9.3 4.9 9 5.3 8.7C5.5 8.6 5.8 8.5 6.1 8.5C4.8 10.3 4.9 12.4 4.4 14.4C4.3 14.9 4.2 15.3 4.1 15.8C4 16 4.1 16.2 4.3 16.3C5 16.5 5.6 16.8 6.3 17C6.5 16.6 6.7 16.2 6.9 15.8C7.4 14.8 8.1 13.8 9.3 13.5C11.6 13 13.6 13.7 14.6 16.2C14.7 16.5 14.8 16.8 15 17.2C15.8 17 16.6 16.7 17.4 16.5C17.3 16 17.3 15.6 17.2 15.1C16.8 13.1 16.9 11.2 17.2 9.2C17.2 8.9 17.2 8.7 17.3 8.4C17.4 8 17.5 7.6 17.7 7.3C18 6.8 18.5 6.8 18.9 7.1C19.2 7.4 19.5 7.6 19.8 7.8C20.5 8.2 21.1 7.9 21.7 7.4C22.1 6.8 22.3 6.1 22 5.5ZM18.8 4.7C18.3 4.7 18 4.3 18 3.9C18 3.4 18.3 3 18.8 3C19.3 3 19.6 3.4 19.6 3.8C19.6 4.3 19.3 4.7 18.8 4.7Z" fill="#00ABC7"/>
</svg>
