<svg width="24" height="22" viewBox="0 0 24 22" fill="none" xmlns="http://www.w3.org/2000/svg">
<path d="M4.67532 9.35068L1.0909 8.25977C0.623371 8.25977 0.155838 8.41562 -5.7146e-06 8.88315C-0.15585 9.35068 0.155838 9.81822 0.467527 9.81822L4.20779 10.9091H4.36363C4.67532 10.9091 4.98701 10.7533 5.14285 10.2857C5.2987 9.97406 5.14285 9.50653 4.67532 9.35068Z" fill="#00abc7"/>
<path d="M7.01298 6.0779L4.36363 3.27271C4.05195 2.96102 3.58441 2.96102 3.27272 3.27271C2.96104 3.58439 2.80519 4.05193 3.11688 4.36362L5.76623 7.16881C5.92208 7.32465 6.23376 7.32465 6.38961 7.32465C6.54545 7.32465 6.85714 7.32465 7.01298 7.16881C7.32467 6.85712 7.32467 6.38959 7.01298 6.0779Z" fill="#00abc7"/>
<path d="M9.03895 4.67533C9.1948 4.98702 9.50649 5.29871 9.81817 5.29871H9.97402C10.4416 5.14286 10.5974 4.83117 10.5974 4.36364L9.66233 0.623382C9.66233 0.15585 9.1948 5.64009e-06 8.72726 5.64009e-06C8.25973 0.15585 8.10389 0.623382 8.10389 1.09091L9.03895 4.67533Z" fill="#00abc7"/>
<path d="M13.7143 5.14287H13.8701C14.1818 5.14287 14.4935 4.98703 14.6493 4.51949L15.7403 0.935077C15.7403 0.623389 15.5844 0.155857 15.1169 1.23344e-05C14.6493 -0.155832 14.3377 0.155856 14.1818 0.623389L13.0909 4.2078C12.9351 4.67534 13.2468 5.14287 13.7143 5.14287Z" fill="#00abc7"/>
<path d="M20.7273 3.27271C20.4156 2.96102 19.9481 2.96102 19.6364 3.27271L16.8312 5.92206C16.5195 6.23374 16.5195 6.70128 16.8312 7.01297C16.987 7.16881 17.1429 7.32465 17.4545 7.32465C17.6104 7.32465 17.9221 7.32465 18.0779 7.16881L20.8831 4.51946C21.039 4.05193 21.039 3.58439 20.7273 3.27271Z" fill="#00abc7"/>
<path d="M24 8.72725C23.8441 8.25972 23.5325 8.10388 23.0649 8.10388L19.3247 9.03894C18.8571 9.19478 18.7013 9.50647 18.7013 9.97401C18.8571 10.2857 19.1688 10.5974 19.4805 10.5974H19.6364L23.3766 9.66232C23.8441 9.66232 24 9.19478 24 8.72725Z" fill="#00abc7"/>
<path d="M13.7143 18.7013H10.2857C9.97402 18.7013 9.81818 19.013 9.81818 19.1688C9.81818 19.3247 10.1299 19.6364 10.2857 19.6364H13.7143C14.026 19.6364 14.1818 19.3247 14.1818 19.1688C14.1818 19.013 14.026 18.7013 13.7143 18.7013Z" fill="#00abc7"/>
<path d="M13.4026 19.7922H10.5974C10.2857 19.7922 10.1299 20.1039 10.1299 20.2597C10.1299 20.4156 10.4416 20.7273 10.5974 20.7273H13.5584C13.7143 20.8831 14.026 20.5714 14.026 20.2597C14.026 19.948 13.7143 19.7922 13.4026 19.7922Z" fill="#00abc7"/>
<path d="M12.7792 20.8831H11.0649C10.7532 20.8831 10.5974 21.1948 10.5974 21.3507C10.5974 21.5065 10.9091 21.8182 11.0649 21.8182H12.7792C13.0909 21.8182 13.2467 21.5065 13.2467 21.3507C13.2467 21.1948 13.0909 20.8831 12.7792 20.8831Z" fill="#00abc7"/>
<path d="M12 7.16882C9.1948 7.16882 7.7922 9.03895 7.48051 10.2857C7.01298 11.6883 7.01298 12.9351 7.63635 13.8701C7.94804 14.3377 8.10389 14.6493 8.41558 14.961C8.57142 15.1169 8.72726 15.4286 8.88311 15.5844C9.03895 15.8961 9.1948 16.3636 9.1948 16.8312V17.1429C9.35064 17.7662 9.66233 18.0779 10.2857 18.2338H13.4026C14.026 18.0779 14.4935 17.7662 14.4935 17.1429V16.8312C14.4935 16.3636 14.6493 15.8961 14.8052 15.5844C15.2727 15.4286 15.4286 15.1169 15.5844 14.961C15.8961 14.6493 16.0519 14.3377 16.3636 13.8701C16.987 12.7792 16.987 11.5325 16.5195 10.1299C16.2078 9.03895 14.8052 7.16882 12 7.16882ZM15.4286 12.1558C15.1169 12.1558 14.961 12 14.961 11.6883C14.961 11.0649 14.8052 10.4416 14.3377 9.97402C13.8701 9.50649 13.2467 9.1948 12.6234 9.1948C12.4675 9.1948 12.1558 9.03895 12.1558 8.72727C12.1558 8.57142 12.3117 8.25973 12.6234 8.25973C13.5584 8.25973 14.3377 8.72727 14.961 9.35064C15.5844 9.97402 15.8961 10.9091 15.8961 11.6883C15.7403 12 15.5844 12.1558 15.4286 12.1558Z" fill="#00abc7"/>
</svg>
