<svg width="20" height="24" viewBox="0 0 20 24" fill="none" xmlns="http://www.w3.org/2000/svg">
<path d="M18.9124 19.9078C18.3594 19.576 17.6959 19.4654 17.0323 19.2442C16.8111 19.1336 16.5899 19.1336 16.4793 19.023C16.2581 18.9124 16.0369 18.6912 16.0369 18.47C16.0369 17.2535 16.0369 16.0369 16.0369 14.8203C16.3687 14.7097 16.8111 14.7097 17.1429 14.5991C17.5853 14.4885 18.1383 14.3779 18.5806 14.1567C19.4654 13.7143 19.9078 12.9401 19.7972 11.9447C19.6866 11.3917 19.4654 11.0599 18.9124 10.9493C18.3594 10.7281 17.8065 10.7281 17.3641 10.9493C17.1429 10.9493 16.9217 11.0599 16.7005 11.1705C16.0369 11.3917 15.4839 11.2811 14.9309 10.9493C14.7097 10.8387 14.5991 10.7281 14.4885 10.5069C14.3779 10.3963 14.3779 10.1751 14.4885 10.0645C15.3733 8.95853 15.7051 7.74194 15.7051 6.30415C15.7051 5.97235 15.8157 5.75115 16.1475 5.64055C17.2535 5.08756 17.8065 3.87097 17.5853 2.65438C17.3641 1.43779 16.4793 0.442396 15.2627 0.221198C15.1521 0.221198 15.1521 0.221198 15.0415 0.221198C14.8203 0.221198 14.4885 0.221198 14.2673 0.221198C14.1567 0.221198 14.1567 0.221198 14.0461 0.331797C13.4931 0.442396 12.9401 0.774194 12.4977 1.21659C12.3871 1.10599 12.2765 1.10599 12.0553 1.10599C10.6175 0.442396 9.17973 0.442396 7.74194 1.10599C7.52074 1.21659 7.41014 1.10599 7.18894 0.995392C6.85715 0.552995 6.30415 0.221198 5.75115 0.110599C5.64056 0 5.52996 0 5.52996 0C5.30876 0 4.97696 0 4.75576 0C4.53456 0.110599 4.20277 0.110599 3.87097 0.331797C2.87558 0.884793 2.32258 1.65899 2.21198 2.87558C2.21198 4.09217 2.76498 4.97696 3.87097 5.52995C4.20277 5.75115 4.31337 5.97235 4.42397 6.30415C4.42397 7.07834 4.53456 7.74194 4.75576 8.40553C4.97696 8.95853 5.19816 9.40092 5.52996 9.84332C5.86175 10.2857 5.75115 10.7281 5.19816 10.8387C4.53456 11.0599 3.87097 11.1705 3.09678 10.9493C2.76498 10.8387 2.32258 10.7281 1.88019 10.7281C0.663598 10.7281 0.110602 11.5023 0.331801 12.7189C0.4424 13.3825 0.884796 13.8249 1.43779 14.1567C1.99079 14.4885 2.65438 14.5991 3.20738 14.7097C3.42857 14.7097 3.76037 14.8203 3.98157 14.8203C3.98157 15.3733 3.98157 15.9263 3.98157 16.4793C3.98157 17.1429 3.98157 17.6959 3.98157 18.3594C3.98157 18.8018 3.76037 19.023 3.42857 19.2442C2.87558 19.4654 2.32258 19.576 1.65899 19.7972C1.54839 19.7972 1.43779 19.9078 1.21659 19.9078C0.221202 20.3502 -0.110596 21.0138 -0.110596 22.0092C3.36021e-06 22.894 0.552999 23.7788 1.43779 24C1.65899 24 1.76959 24 1.99079 24C2.54378 23.7788 3.20738 23.6682 3.76037 23.447C4.86636 23.0046 5.75115 22.5622 6.63595 22.1198C6.96774 21.8986 7.41014 21.8986 7.74194 21.8986C9.17973 22.1198 10.7281 22.1198 12.1659 21.8986C12.6083 21.788 12.9401 21.8986 13.2719 22.1198C14.1567 22.5622 15.0415 23.0046 15.9263 23.3364C16.4793 23.5576 17.0323 23.6682 17.5853 23.8894C17.8065 23.8894 17.9171 23.8894 18.1383 23.8894C19.023 23.6682 19.576 23.0046 19.6866 22.1198C20.129 21.235 19.7972 20.3502 18.9124 19.9078ZM11.8341 7.41014C12.9401 8.29493 12.9401 9.73272 11.8341 10.5069C11.2811 10.9493 10.6175 11.0599 9.84332 11.0599C9.17973 11.0599 8.51613 10.8387 7.96314 10.5069C6.85715 9.73272 6.85715 8.29493 7.96314 7.41014C9.06913 6.52535 10.8387 6.52535 11.8341 7.41014ZM5.86175 5.30876C5.86175 4.75576 6.30415 4.31336 6.85714 4.31336C7.41014 4.31336 7.85254 4.75576 7.85254 5.30876C7.85254 5.86175 7.41014 6.30415 6.85714 6.30415C6.30415 6.30415 5.86175 5.86175 5.86175 5.30876ZM13.2719 17.9171C13.1613 18.9124 12.6083 19.6866 11.6129 20.0184C10.3963 20.4608 9.29032 20.4608 8.07374 20.0184C7.18894 19.576 6.63595 18.8018 6.63595 17.6959C6.63595 17.3641 6.63595 17.1429 6.63595 16.8111C6.63595 16.2581 6.63595 15.7051 6.85714 15.1521C7.18894 13.6037 8.73733 12.4977 10.3963 12.6083C11.9447 12.7189 13.2719 13.9355 13.4931 15.5945C13.3825 16.3687 13.3825 17.1429 13.2719 17.9171ZM12.6083 6.30415C12.0553 6.30415 11.6129 5.86175 11.6129 5.30876C11.6129 4.75576 12.0553 4.31336 12.6083 4.31336C13.1613 4.31336 13.6037 4.75576 13.6037 5.30876C13.6037 5.86175 13.1613 6.30415 12.6083 6.30415Z" fill="#00abc7"/>
<path d="M9.95392 8.73733C10.3963 8.73733 10.7281 8.40553 10.7281 7.96314C10.7281 7.52074 10.3963 7.07834 9.95392 7.07834C9.51152 7.07834 9.17973 7.41014 9.17973 7.85254C9.06913 8.40553 9.51152 8.73733 9.95392 8.73733Z" fill="#00abc7"/>
</svg>
