<svg width="24" height="22" viewBox="0 0 24 22" fill="none" xmlns="http://www.w3.org/2000/svg">
<g clip-path="url(#clip0)">
<path d="M19.5745 0H4.42553C3.23404 0 2.38297 1.02128 2.38297 2.04255V11.9149C2.38297 13.1064 3.40425 13.9574 4.42553 13.9574H19.4042C20.5957 13.9574 21.4468 12.9362 21.4468 11.9149V2.04255C21.617 1.02128 20.5957 0 19.5745 0ZM19.4042 11.7447H4.42553V2.21277H19.4042V11.7447Z" fill="#1E1E1C"/>
<path d="M8 3.40426L8.51064 8.85106L9.3617 8L10.5532 10.2128L11.9149 9.3617L10.7234 7.31915L11.9149 6.97872L8 3.40426Z" fill="#1E1E1C"/>
<path d="M21.2766 14.9788H2.7234L0 18.7234C0 18.7234 0 21.2766 2.7234 21.2766H21.2766C23.6596 21.2766 24 18.7234 24 18.7234L21.2766 14.9788ZM9.19149 18.7234L10.2128 16.6809H13.7872L14.6383 18.7234H9.19149Z" fill="#1E1E1C"/>
</g>
<defs>
<clipPath id="clip0">
<rect width="24" height="21.2766" fill="white"/>
</clipPath>
</defs>
</svg>
