<svg width="21" height="24" viewBox="0 0 21 24" fill="none" xmlns="http://www.w3.org/2000/svg">
<path d="M20.4211 1.47368C20.4211 0.421053 20 0 19.3684 0C19.1579 0 18.9474 0 18.7368 0H18.5263C17.2632 0.210526 16 0.421053 15.1579 0.421053C12.4211 0.842105 10.7368 0.842105 7.57895 1.26316C6.73684 1.26316 6.10526 1.68421 6.10526 2.73684C6.10526 4 6.10526 9.47368 6.10526 10.1053V13.8947C5.26316 13.6842 4.42105 13.4737 3.36842 13.6842C2.31579 13.8947 1.26316 14.5263 0.631577 15.3684C-1.60697e-06 16.4211 -0.210528 17.4737 -1.59129e-06 18.5263C0.421051 20.4211 2.10526 21.6842 4 21.6842C4.42105 21.6842 4.63158 21.6842 5.05263 21.6842C7.15789 21.0526 8.42105 19.5789 8.42105 17.0526C8.42105 16.8421 8.42105 16.6316 8.42105 16.4211C8.42105 16.4211 8.42105 8.63158 8.42105 6.94737C8.42105 6.31579 8.42105 6.10526 9.05263 6.10526C10.1053 6.10526 13.0526 5.68421 16.6316 5.26316C17.0526 5.26316 17.2632 5.26316 17.4737 5.47368C17.6842 5.68421 17.6842 5.89474 17.6842 6.31579C17.6842 6.31579 17.6842 14.5263 17.6842 15.1579C17.6842 15.3684 17.6842 15.3684 17.6842 15.3684C16.6316 14.7368 15.5789 14.5263 14.3158 14.7368C13.0526 14.9474 12 15.7895 11.1579 16.8421C10.5263 17.8947 10.1053 19.1579 10.3158 20.2105C10.7368 22.3158 12.6316 23.7895 15.1579 23.7895C15.5789 23.7895 16 23.7895 16.2105 23.5789C18.5263 23.1579 19.7895 21.6842 20.2105 19.3684C20.4211 18.7368 20.4211 18.1053 20.4211 17.2632C20.4211 14.9474 20.4211 10.9474 20.4211 7.57895C20.4211 4.63158 20.6316 1.89474 20.4211 1.47368Z" fill="#1E1E1C"/>
</svg>
