<svg width="24" height="24" viewBox="0 0 24 24" fill="none" xmlns="http://www.w3.org/2000/svg">
<path d="M18.8354 11.0886C18.6835 11.0886 18.5316 11.0886 18.5316 10.9367C18.3797 10.7848 18.3797 10.481 18.5316 10.1772C19.8987 8.81008 19.8987 6.6835 18.5316 5.31641C18.3797 5.16451 18.3797 4.86071 18.5316 4.55692C18.6835 4.40502 18.9873 4.40502 19.2911 4.55692C20.962 6.2278 20.962 9.11388 19.2911 10.7848C19.1392 11.0886 18.9873 11.0886 18.8354 11.0886Z" fill="#1E1E1C" stroke="#1E1E1C" stroke-width="0.2469" stroke-miterlimit="10" stroke-linecap="round" stroke-linejoin="round"/>
<path d="M21.5696 2.43034C20.2025 1.06325 18.2278 0.151855 16.1013 0.151855C14.1266 0.151855 12.1519 0.911349 10.7848 2.43034C8.05063 5.01262 7.74683 9.26578 9.87341 12.1519L9.26582 12.9113C8.96202 12.7595 8.65823 12.9113 8.35443 13.0632L0.455694 20.0506C0.151897 20.3544 -1.68409e-06 20.962 0.455694 21.2658L2.73418 23.5443C3.03797 23.8481 3.64557 23.8481 3.94936 23.5443L10.9367 15.6455C11.0886 15.3417 11.2405 15.0379 11.0886 14.7341L11.6962 14.1265C12.9114 15.0379 14.4304 15.4936 16.1013 15.4936C18.0759 15.4936 20.0506 14.7341 21.5696 13.2151C24.4557 10.1772 24.4557 5.46831 21.5696 2.43034ZM20.3544 12.1519C19.2911 13.2151 17.7721 13.9746 16.1013 13.9746C14.5823 13.8227 13.0633 13.2151 11.8481 12.1519C9.56962 9.87338 9.56962 5.92401 11.8481 3.64553C12.9114 2.58224 14.4304 1.82274 16.1013 1.82274C17.7721 1.82274 19.2911 2.43034 20.3544 3.64553C22.7848 5.92401 22.7848 9.72148 20.3544 12.1519Z" fill="#1E1E1C" stroke="#1E1E1C" stroke-width="0.2469" stroke-miterlimit="10"/>
</svg>
