<svg width="24" height="23" viewBox="0 0 24 23" fill="none" xmlns="http://www.w3.org/2000/svg">
<path d="M7.28276 4.46898C7.11724 4.46898 7.11724 4.46898 6.95172 4.30346C6.78621 4.13794 6.78621 3.97242 6.95172 3.64139C8.93793 1.48967 10.9241 0.331045 13.2414 0.165527C15.5586 0.165527 17.7103 1.32415 19.6966 3.80691C19.8621 3.97242 19.8621 4.30346 19.6966 4.46898C19.531 4.63449 19.2 4.63449 19.0345 4.46898C17.2138 2.31725 15.2276 1.15863 13.2414 1.15863C11.2552 1.15863 9.43448 2.31725 7.61379 4.46898C7.44828 4.46898 7.28276 4.46898 7.28276 4.46898Z" fill="#1E1E1C"/>
<path d="M13.2414 7.94485C10.9241 7.77934 8.93793 6.6207 6.95172 4.30346C6.78621 4.13794 6.78621 3.80691 6.95172 3.64139C7.11724 3.47587 7.44828 3.47589 7.61379 3.64141C9.43448 5.79313 11.4207 6.95175 13.2414 6.95175C15.2276 6.95175 17.2138 5.79313 19.0345 3.64141C19.2 3.47589 19.531 3.47589 19.6966 3.64141C19.8621 3.80692 19.8621 4.13796 19.6966 4.30347C17.7103 6.62072 15.5586 7.94485 13.2414 7.94485Z" fill="#1E1E1C"/>
<path d="M13.4069 7.2828C11.5862 7.2828 10.0965 5.79315 10.0965 3.97246C10.0965 2.15177 11.5862 0.662111 13.4069 0.662111C15.2276 0.662111 16.7172 2.15177 16.7172 3.97246C16.5517 5.79315 15.0621 7.2828 13.4069 7.2828ZM13.4069 1.65521C12.0828 1.65521 10.9241 2.64832 10.9241 3.97246C10.9241 5.29659 12.0828 6.45521 13.4069 6.45521C14.731 6.45521 15.8897 5.29659 15.8897 3.97246C15.7241 2.64832 14.731 1.65521 13.4069 1.65521Z" fill="#1E1E1C"/>
<path d="M14.2345 3.97246C14.2345 3.4759 13.9034 3.14487 13.4069 3.14487C12.9103 3.14487 12.5793 3.4759 12.5793 3.97246C12.4138 4.46901 12.9103 4.96556 13.4069 4.96556C13.9034 4.96556 14.2345 4.46901 14.2345 3.97246Z" fill="#1E1E1C"/>
<path d="M17.7103 17.0483H17.5448C17.3793 17.0483 17.2138 16.8828 17.2138 16.5518C17.2138 16.3862 17.3793 16.2207 17.7103 16.2207C18.2069 16.2207 18.5379 15.8897 18.5379 15.3931C18.5379 15.0621 18.5379 14.4 17.5448 14.2345C17.3793 14.2345 17.2138 14.069 17.2138 13.9035C17.2138 12.5794 17.5448 11.5862 18.0414 11.0897C18.5379 10.7587 19.0345 10.5931 19.6966 10.5931C20.3586 10.5931 21.0207 10.9242 21.3517 11.4207C21.6828 11.9173 21.8483 12.7449 21.6828 13.5725C21.6828 13.738 21.3517 13.9035 21.1862 13.9035C21.0207 13.9035 20.8552 13.5725 20.8552 13.4069C21.0207 12.7449 20.8552 12.2483 20.6897 11.9173C20.3586 11.5862 20.0276 11.4207 19.6966 11.4207C19.2 11.4207 18.869 11.4207 18.7034 11.7518C18.3724 12.0828 18.2069 12.7449 18.0414 13.5725C19.0345 13.9035 19.3655 14.7311 19.3655 15.5587C19.2 16.2207 18.5379 17.0483 17.7103 17.0483Z" fill="#1E1E1C"/>
<path d="M17.3793 22.0138C16.5517 22.0138 15.3931 21.5172 15.0621 20.1931C15.0621 20.0276 15.2276 19.6966 15.3931 19.6966C15.5586 19.6966 15.8897 19.8621 15.8897 20.0276C16.0552 20.8552 16.8828 21.1862 17.3793 21.1862C18.5379 21.0207 18.869 20.6897 18.869 19.531C18.869 18.5379 19.3655 17.5448 20.1931 17.0483C21.5172 16.0552 22.6759 15.0621 22.6759 13.0759C22.6759 12.0828 22.3448 9.60001 19.6966 9.26897C19.0345 9.10346 17.8759 9.43449 17.0483 10.0966C16.5517 10.4276 16.0552 11.2552 15.8897 12.2483C15.8897 12.4138 15.7241 12.5793 15.3931 12.5793C15.2276 12.5793 15.0621 12.4138 15.0621 12.0828C15.2276 10.9241 15.7241 9.93104 16.5517 9.26897C17.3793 8.6069 18.7034 8.11035 19.6966 8.27587C22.0138 8.6069 23.5034 10.2621 23.5034 12.9104C23.5034 15.0621 22.0138 16.3862 20.6897 17.5448C20.3586 17.8759 19.6966 18.3724 19.6966 19.3655C19.8621 21.0207 19.2 21.8483 17.3793 22.0138C17.5448 22.0138 17.5448 22.0138 17.3793 22.0138Z" fill="#1E1E1C"/>
<path d="M6.12414 14.4C5.95862 14.4 5.62759 14.2345 5.62759 13.9035V11.5862C5.62759 10.7586 6.28966 10.0966 7.11724 10.0966C7.94483 10.0966 8.6069 10.7586 8.6069 11.5862V12.0828C8.6069 12.2483 8.44138 12.5793 8.11035 12.5793C7.94483 12.5793 7.61379 12.4138 7.61379 12.0828V11.5862C7.61379 11.2552 7.28276 10.9241 6.95173 10.9241C6.62069 10.9241 6.45517 11.2552 6.45517 11.5862V14.069C6.45517 14.2345 6.28966 14.4 6.12414 14.4Z" fill="#1E1E1C"/>
<path d="M8.11034 15.0621C7.94483 15.0621 7.77931 14.8966 7.77931 14.731V12.4138C7.77931 11.5862 8.44138 10.9241 9.26896 10.9241C10.0965 10.9241 10.7586 11.5862 10.7586 12.4138V14.731C10.7586 14.8966 10.5931 15.2276 10.2621 15.2276C10.0965 15.0621 9.93103 14.8966 9.93103 14.5655V12.4138C9.93103 12.0828 9.6 11.7517 9.26896 11.7517C8.93793 11.7517 8.60689 12.0828 8.60689 12.4138V14.731C8.60689 14.8966 8.44138 15.0621 8.11034 15.0621Z" fill="#1E1E1C"/>
<path d="M11.2552 22.0138H5.13103C4.96552 22.0138 4.63448 21.8483 4.63448 21.5173C4.63448 20.3586 4.13793 19.3655 3.8069 19.0345C3.31034 18.2069 2.31724 17.3793 1.15862 16.8828C0.662069 16.5518 0 16.2207 0 15.3931C0 14.8966 0.496552 14.4 1.32414 14.4C1.98621 14.2345 2.64828 14.4 3.31034 14.7311V8.11037C3.47586 7.28279 4.13793 6.62072 4.96552 6.62072C5.7931 6.62072 6.45517 7.28279 6.45517 8.11037V11.9173C6.45517 12.0828 6.28965 12.4138 5.95862 12.4138C5.7931 12.4138 5.46207 12.2483 5.46207 11.9173V8.11037C5.46207 7.77934 5.13103 7.4483 4.8 7.4483C4.46897 7.4483 4.13793 7.77934 4.13793 8.11037V15.3931C4.13793 15.5586 3.97241 15.7242 3.97241 15.7242C3.8069 15.7242 3.64138 15.7242 3.47586 15.7242C2.97931 15.3931 2.31724 15.0621 1.65517 15.2276C1.15862 15.2276 0.993103 15.3931 0.993103 15.5586C0.993103 15.7242 0.993103 15.8897 1.65517 16.2207C2.31724 16.5518 3.8069 17.3793 4.63448 18.7035C4.8 19.0345 5.46207 20.0276 5.46207 21.1862H10.9241C10.9241 20.8552 11.0897 20.1931 11.4207 19.6966C11.7517 19.2 12.0828 18.0414 12.0828 17.3793V12.9104C12.0828 12.5793 11.7517 12.2483 11.4207 12.2483C11.0897 12.2483 10.7586 12.4138 10.7586 12.9104C10.7586 13.0759 10.5931 13.4069 10.2621 13.4069C10.0966 13.4069 9.93103 13.2414 9.93103 13.0759C9.93103 12.2483 10.4276 11.5862 11.4207 11.5862C12.2483 11.5862 12.9103 12.2483 12.9103 13.0759V17.5449C12.9103 18.3724 12.5793 19.6966 12.0828 20.1931C11.7517 20.5242 11.7517 21.3518 11.7517 21.5173C11.7517 21.8483 11.5862 22.0138 11.2552 22.0138Z" fill="#1E1E1C"/>
<path d="M6.95172 4.30346C7.11724 4.46898 7.11724 4.46898 7.28276 4.46898C7.28276 4.46898 7.44828 4.46898 7.61379 4.46898C9.43448 2.31725 11.2552 1.15863 13.2414 1.15863C15.2276 1.15863 17.2138 2.31725 19.0345 4.46898C19.2 4.63449 19.531 4.63449 19.6966 4.46898C19.8621 4.30346 19.8621 3.97242 19.6966 3.80691C17.7103 1.32415 15.5586 0.165527 13.2414 0.165527C10.9241 0.331045 8.93793 1.48967 6.95172 3.64139M6.95172 4.30346C6.78621 4.13794 6.78621 3.97242 6.95172 3.64139M6.95172 4.30346C8.93793 6.6207 10.9241 7.77934 13.2414 7.94485C15.5586 7.94485 17.7103 6.62072 19.6966 4.30347C19.8621 4.13796 19.8621 3.80692 19.6966 3.64141C19.531 3.47589 19.2 3.47589 19.0345 3.64141C17.2138 5.79313 15.2276 6.95175 13.2414 6.95175C11.4207 6.95175 9.43448 5.79313 7.61379 3.64141C7.44828 3.47589 7.11724 3.47587 6.95172 3.64139M6.95172 4.30346C6.78621 4.13794 6.78621 3.80691 6.95172 3.64139M17.3793 22.0138C16.5517 22.0138 15.3931 21.5172 15.0621 20.1931C15.0621 20.0276 15.2276 19.6966 15.3931 19.6966C15.5586 19.6966 15.8897 19.8621 15.8897 20.0276C16.0552 20.8552 16.8828 21.1862 17.3793 21.1862C18.5379 21.0207 18.869 20.6897 18.869 19.531C18.869 18.5379 19.3655 17.5448 20.1931 17.0483C21.5172 16.0552 22.6759 15.0621 22.6759 13.0759C22.6759 12.0828 22.3448 9.60001 19.6966 9.26897C19.0345 9.10346 17.8759 9.43449 17.0483 10.0966C16.5517 10.4276 16.0552 11.2552 15.8897 12.2483C15.8897 12.4138 15.7241 12.5793 15.3931 12.5793C15.2276 12.5793 15.0621 12.4138 15.0621 12.0828C15.2276 10.9241 15.7241 9.93104 16.5517 9.26897C17.3793 8.6069 18.7034 8.11035 19.6966 8.27587C22.0138 8.6069 23.5034 10.2621 23.5034 12.9104C23.5034 15.0621 22.0138 16.3862 20.6897 17.5448C20.3586 17.8759 19.6966 18.3724 19.6966 19.3655C19.8621 21.0207 19.2 21.8483 17.3793 22.0138ZM17.3793 22.0138C17.5448 22.0138 17.5448 22.0138 17.3793 22.0138ZM13.4069 7.2828C11.5862 7.2828 10.0965 5.79315 10.0965 3.97246C10.0965 2.15177 11.5862 0.662111 13.4069 0.662111C15.2276 0.662111 16.7172 2.15177 16.7172 3.97246C16.5517 5.79315 15.0621 7.2828 13.4069 7.2828ZM13.4069 1.65521C12.0828 1.65521 10.9241 2.64832 10.9241 3.97246C10.9241 5.29659 12.0828 6.45521 13.4069 6.45521C14.731 6.45521 15.8897 5.29659 15.8897 3.97246C15.7241 2.64832 14.731 1.65521 13.4069 1.65521ZM14.2345 3.97246C14.2345 3.4759 13.9034 3.14487 13.4069 3.14487C12.9103 3.14487 12.5793 3.4759 12.5793 3.97246C12.4138 4.46901 12.9103 4.96556 13.4069 4.96556C13.9034 4.96556 14.2345 4.46901 14.2345 3.97246ZM17.7103 17.0483H17.5448C17.3793 17.0483 17.2138 16.8828 17.2138 16.5518C17.2138 16.3862 17.3793 16.2207 17.7103 16.2207C18.2069 16.2207 18.5379 15.8897 18.5379 15.3931C18.5379 15.0621 18.5379 14.4 17.5448 14.2345C17.3793 14.2345 17.2138 14.069 17.2138 13.9035C17.2138 12.5794 17.5448 11.5862 18.0414 11.0897C18.5379 10.7587 19.0345 10.5931 19.6966 10.5931C20.3586 10.5931 21.0207 10.9242 21.3517 11.4207C21.6828 11.9173 21.8483 12.7449 21.6828 13.5725C21.6828 13.738 21.3517 13.9035 21.1862 13.9035C21.0207 13.9035 20.8552 13.5725 20.8552 13.4069C21.0207 12.7449 20.8552 12.2483 20.6897 11.9173C20.3586 11.5862 20.0276 11.4207 19.6966 11.4207C19.2 11.4207 18.869 11.4207 18.7034 11.7518C18.3724 12.0828 18.2069 12.7449 18.0414 13.5725C19.0345 13.9035 19.3655 14.7311 19.3655 15.5587C19.2 16.2207 18.5379 17.0483 17.7103 17.0483ZM6.12414 14.4C5.95862 14.4 5.62759 14.2345 5.62759 13.9035V11.5862C5.62759 10.7586 6.28966 10.0966 7.11724 10.0966C7.94483 10.0966 8.6069 10.7586 8.6069 11.5862V12.0828C8.6069 12.2483 8.44138 12.5793 8.11035 12.5793C7.94483 12.5793 7.61379 12.4138 7.61379 12.0828V11.5862C7.61379 11.2552 7.28276 10.9241 6.95173 10.9241C6.62069 10.9241 6.45517 11.2552 6.45517 11.5862V14.069C6.45517 14.2345 6.28966 14.4 6.12414 14.4ZM8.11034 15.0621C7.94483 15.0621 7.77931 14.8966 7.77931 14.731V12.4138C7.77931 11.5862 8.44138 10.9241 9.26896 10.9241C10.0965 10.9241 10.7586 11.5862 10.7586 12.4138V14.731C10.7586 14.8966 10.5931 15.2276 10.2621 15.2276C10.0965 15.0621 9.93103 14.8966 9.93103 14.5655V12.4138C9.93103 12.0828 9.6 11.7517 9.26896 11.7517C8.93793 11.7517 8.60689 12.0828 8.60689 12.4138V14.731C8.60689 14.8966 8.44138 15.0621 8.11034 15.0621ZM11.2552 22.0138H5.13103C4.96552 22.0138 4.63448 21.8483 4.63448 21.5173C4.63448 20.3586 4.13793 19.3655 3.8069 19.0345C3.31034 18.2069 2.31724 17.3793 1.15862 16.8828C0.662069 16.5518 0 16.2207 0 15.3931C0 14.8966 0.496552 14.4 1.32414 14.4C1.98621 14.2345 2.64828 14.4 3.31034 14.7311V8.11037C3.47586 7.28279 4.13793 6.62072 4.96552 6.62072C5.7931 6.62072 6.45517 7.28279 6.45517 8.11037V11.9173C6.45517 12.0828 6.28965 12.4138 5.95862 12.4138C5.7931 12.4138 5.46207 12.2483 5.46207 11.9173V8.11037C5.46207 7.77934 5.13103 7.4483 4.8 7.4483C4.46897 7.4483 4.13793 7.77934 4.13793 8.11037V15.3931C4.13793 15.5586 3.97241 15.7242 3.97241 15.7242C3.8069 15.7242 3.64138 15.7242 3.47586 15.7242C2.97931 15.3931 2.31724 15.0621 1.65517 15.2276C1.15862 15.2276 0.993103 15.3931 0.993103 15.5586C0.993103 15.7242 0.993103 15.8897 1.65517 16.2207C2.31724 16.5518 3.8069 17.3793 4.63448 18.7035C4.8 19.0345 5.46207 20.0276 5.46207 21.1862H10.9241C10.9241 20.8552 11.0897 20.1931 11.4207 19.6966C11.7517 19.2 12.0828 18.0414 12.0828 17.3793V12.9104C12.0828 12.5793 11.7517 12.2483 11.4207 12.2483C11.0897 12.2483 10.7586 12.4138 10.7586 12.9104C10.7586 13.0759 10.5931 13.4069 10.2621 13.4069C10.0966 13.4069 9.93103 13.2414 9.93103 13.0759C9.93103 12.2483 10.4276 11.5862 11.4207 11.5862C12.2483 11.5862 12.9103 12.2483 12.9103 13.0759V17.5449C12.9103 18.3724 12.5793 19.6966 12.0828 20.1931C11.7517 20.5242 11.7517 21.3518 11.7517 21.5173C11.7517 21.8483 11.5862 22.0138 11.2552 22.0138Z" stroke="#1E1E1C" stroke-width="0.2835" stroke-miterlimit="10"/>
</svg>
