<svg width="24" height="20" viewBox="0 0 24 20" fill="none" xmlns="http://www.w3.org/2000/svg">
<g clip-path="url(#clip0)">
<path d="M22.7826 2.26083V17.7391H14.4348C14.2609 17.913 14.087 18.0869 13.913 18.2608H24V2.08692L22.7826 2.26083Z" fill="#00abc7"/>
<path d="M9.56522 17.2174H1.56522V2.43478H1.73913V1.73913C1.39131 1.73913 1.21739 1.73913 1.04348 1.73913L0.695653 1.91304V18.087H10.9565C10.6087 17.7391 10.087 17.5652 9.56522 17.2174Z" fill="#00abc7"/>
<path d="M22.9565 1.73913C22.7826 1.73913 22.4348 1.73913 22.2609 1.73913V2.6087H22.4348V17.3913H14.2609C13.7391 17.5652 13.2174 17.913 13.0435 18.2609H23.3043V1.91304L22.9565 1.73913Z" fill="#00abc7"/>
<path d="M11.4783 3.47826C9.73913 1.3913 6.08696 0 3.47826 0C3.13044 0 2.78261 0 2.43478 0V14.7826C5.21739 14.9565 9.73913 15.6522 11.4783 17.5652V3.47826Z" fill="#00abc7"/>
<path d="M21.3913 0.173913C21.0435 0 20.6957 0 20.3478 0C17.7391 0 14.087 1.3913 12.3478 3.47826V17.3913C14.2609 15.6522 18.6087 14.9565 21.3913 14.6087V0.173913Z" fill="#00abc7"/>
<path d="M12 19.1305C10.9565 19.1305 10.087 18.6087 9.3913 17.9131C9.21739 17.7392 9.21739 17.3913 9.3913 17.3913C9.56522 17.2174 9.91304 17.2174 9.91304 17.3913C10.4348 18.087 11.1304 18.4348 12 18.2609C12.6957 18.2609 13.3913 17.9131 13.7391 17.3913C13.913 17.2174 14.2609 17.2174 14.4348 17.2174C14.6087 17.3913 14.6087 17.5652 14.6087 17.7391C13.913 18.6087 13.0435 19.1305 12 19.1305Z" fill="#00abc7"/>
<path d="M10.9565 18.087H0.695653L0.695652 2.08692H0V18.0869L10.9565 18.087Z" fill="#00abc7"/>
<path d="M9.73913 17.3913C9.73913 17.3913 9.91304 17.3913 9.91304 17.5652C9.91304 17.3913 9.91304 17.3913 9.73913 17.3913Z" fill="#00abc7"/>
<path d="M1.73913 1.73913C1.39131 1.73913 1.21739 1.73913 1.04348 1.73913L0.695653 1.91304V2.26087H1.73913V1.73913Z" fill="#00abc7"/>
<path d="M10.087 17.5652C10.087 17.5652 10.2609 17.5652 10.2609 17.7391C10.2609 17.5652 10.2609 17.5652 10.087 17.5652Z" fill="#00abc7"/>
<path d="M10.9565 18.087C10.7826 18.087 10.7826 18.087 10.9565 18.087C10.7826 17.913 10.7826 17.9131 10.7826 17.9131C10.7826 17.9131 10.6087 17.9131 10.6087 17.7392C10.6087 17.7392 10.4348 17.7392 10.4348 17.5653C10.4348 17.5653 10.2609 17.5652 10.2609 17.3913C10.2609 17.3913 10.087 17.3913 10.087 17.2174C10.087 17.2174 9.91304 17.2174 9.91304 17.0435H1.56522V2.43478H1.73913V2.26087H0.695653V18.2609H10.9565V18.087Z" fill="#00abc7"/>
</g>
<defs>
<clipPath id="clip0">
<rect width="24" height="19.1304" fill="white"/>
</clipPath>
</defs>
</svg>
