<svg width="24" height="23" viewBox="0 0 24 23" fill="none" xmlns="http://www.w3.org/2000/svg">
<path d="M24 1.54839C24 8.25806 24 14.9677 24 21.6774C21.4194 21.6774 18.8387 21.6774 16.2581 21.6774C16.2581 20.129 16.2581 18.5806 16.2581 17.0323C15.7419 17.0323 15.2258 17.0323 14.7097 17.0323C14.7097 18.5806 14.7097 20.129 14.7097 21.6774C12.2581 21.6774 9.80645 21.6774 7.22581 21.6774C7.35484 21.5484 7.35484 21.4194 7.48387 21.2903C8.51613 19.3548 9.54839 17.5484 10.3226 15.6129C10.7097 14.7097 10.9677 13.9355 10.8387 13.0323C10.7097 10.4516 9.41935 8.51613 6.96774 7.35484C6.83871 7.22581 6.83871 7.22581 6.83871 6.96774C6.83871 5.29032 6.83871 3.48387 6.83871 1.80645C6.83871 1.67742 6.83871 1.67742 6.83871 1.54839C7.87097 1.54839 8.90323 1.54839 9.93548 1.54839C9.93548 1.03226 9.93548 0.516129 9.93548 0C13.6774 0 17.2903 0 21.0323 0C21.0323 0.516129 21.0323 1.03226 21.0323 1.54839C21.9355 1.54839 22.9677 1.54839 24 1.54839ZM14.5806 6.45161C14.5806 5.93548 14.5806 5.41935 14.5806 4.90323C13.6774 4.90323 12.6452 4.90323 11.7419 4.90323C11.7419 5.41935 11.7419 5.93548 11.7419 6.45161C12.6452 6.45161 13.5484 6.45161 14.5806 6.45161ZM16.3871 6.45161C17.2903 6.45161 18.3226 6.45161 19.2258 6.45161C19.2258 5.93548 19.2258 5.41935 19.2258 4.90323C18.3226 4.90323 17.2903 4.90323 16.3871 4.90323C16.3871 5.41935 16.3871 5.93548 16.3871 6.45161ZM14.5806 8C13.6774 8 12.6452 8 11.7419 8C11.7419 8.51613 11.7419 9.03226 11.7419 9.41935C12.6452 9.41935 13.6774 9.41935 14.5806 9.41935C14.5806 8.90323 14.5806 8.3871 14.5806 8ZM19.2258 9.41935C19.2258 8.90323 19.2258 8.3871 19.2258 8C18.3226 8 17.2903 8 16.3871 8C16.3871 8.51613 16.3871 9.03226 16.3871 9.41935C17.2903 9.41935 18.3226 9.41935 19.2258 9.41935ZM11.7419 10.8387C11.7419 11.3548 11.7419 11.871 11.7419 12.2581C12.6452 12.2581 13.6774 12.2581 14.5806 12.2581C14.5806 11.7419 14.5806 11.2258 14.5806 10.8387C13.5484 10.8387 12.6452 10.8387 11.7419 10.8387ZM19.2258 12.3871C19.2258 11.871 19.2258 11.3548 19.2258 10.8387C18.3226 10.8387 17.2903 10.8387 16.3871 10.8387C16.3871 11.3548 16.3871 11.871 16.3871 12.3871C17.2903 12.3871 18.1935 12.3871 19.2258 12.3871ZM14.5806 15.3548C14.5806 14.8387 14.5806 14.3226 14.5806 13.9355C13.6774 13.9355 12.6452 13.9355 11.7419 13.9355C11.7419 14.4516 11.7419 14.9677 11.7419 15.3548C12.6452 15.3548 13.5484 15.3548 14.5806 15.3548ZM16.3871 15.3548C17.2903 15.3548 18.3226 15.3548 19.2258 15.3548C19.2258 14.8387 19.2258 14.3226 19.2258 13.9355C18.3226 13.9355 17.2903 13.9355 16.3871 13.9355C16.3871 14.4516 16.3871 14.8387 16.3871 15.3548Z" fill="white"/>
<path d="M9.54839 12.3871C9.16129 10.1935 7.22581 8.51613 5.16129 8.3871C2.83871 8.25806 0.774194 9.67742 0.258065 11.871C0.129032 12.129 0 12.3871 0 12.6452C0 12.9032 0 13.1613 0 13.4194C0.129032 14.3226 0.516129 15.0968 0.774194 15.871C1.67742 17.8065 2.58065 19.4839 3.74194 21.2903C4.12903 21.8065 4.3871 22.3226 4.77419 22.8387C4.77419 22.7097 4.90323 22.7097 4.90323 22.7097C5.67742 21.5484 6.32258 20.3871 7.09677 19.0968C7.87097 17.6774 8.64516 16.2581 9.16129 14.7097C9.41935 14.0645 9.67742 13.1613 9.54839 12.3871ZM4.77419 16.129C3.09677 16.129 1.80645 14.7097 1.80645 13.1613C1.80645 11.4839 3.22581 10.1935 4.90323 10.1935C6.45161 10.0645 7.74194 11.4839 7.74194 13.1613C7.74194 14.8387 6.45161 16.129 4.77419 16.129Z" fill="white"/>
<path d="M4.77419 11.6129C4 11.6129 3.22581 12.2581 3.22581 13.1613C3.22581 13.9355 3.87097 14.7097 4.64516 14.7097C5.54839 14.7097 6.19355 14.0645 6.19355 13.2903C6.32258 12.2581 5.67742 11.6129 4.77419 11.6129Z" fill="white"/>
</svg>
