<svg width="24" height="24" viewBox="0 0 24 24" fill="none" xmlns="http://www.w3.org/2000/svg">
<path d="M11.3793 6.10345H12.6207L12 4.75862L11.3793 6.10345Z" fill="#00abc7"/>
<path d="M14.4828 0H9.51724C7.75862 0 6.31034 1.44828 6.31034 3.2069V8.06896C6.31034 9.82759 7.75862 11.2759 9.51724 11.2759H14.4828C16.2414 11.2759 17.6897 9.82759 17.6897 8.06896V3.2069C17.6897 1.44828 16.2414 0 14.4828 0ZM14.7931 8.06896C14.5862 8.27586 14.3793 8.27586 14.1724 8.27586C13.9655 8.27586 13.7586 8.17241 13.6552 8.06896C13.6552 8.06896 13.5517 7.96552 13.5517 7.86207L13.3448 7.44828H10.5517L10.3448 7.86207C10.3448 7.96552 10.2414 7.96552 10.2414 8.06896C10.1379 8.27586 9.93103 8.27586 9.72414 8.27586C9.51724 8.27586 9.41379 8.27586 9.2069 8.06896C9.10345 7.96552 9 7.75862 9 7.55172C9 7.44828 9 7.24138 9.10345 7.13793L11.3793 2.68966C11.3793 2.58621 11.4828 2.58621 11.4828 2.58621C11.5862 2.48276 11.7931 2.37931 12 2.37931C12.2069 2.37931 12.4138 2.48276 12.5172 2.58621L12.6207 2.68966L14.8966 7.24138C15 7.34483 15 7.44828 15 7.65517C15 7.75862 14.8966 7.96552 14.7931 8.06896Z" fill="#00abc7"/>
<path d="M6.2069 16.2414H5.06897V16.9655H6.2069C6.31034 16.9655 6.41379 16.9655 6.51724 16.8621C6.62069 16.7586 6.62069 16.6552 6.62069 16.5517C6.62069 16.4483 6.62069 16.3448 6.51724 16.2414C6.41379 16.2414 6.31034 16.2414 6.2069 16.2414Z" fill="#00abc7"/>
<path d="M8.06896 12.1034H3.2069C1.44828 12.1034 0 13.4483 0 15.3103V20.1724C0 21.931 1.44828 23.3793 3.2069 23.3793H8.06896C9.82759 23.3793 11.2759 21.931 11.2759 20.1724V15.3103C11.2759 13.4483 9.82759 12.1034 8.06896 12.1034ZM8.06896 18.931C8.06896 19.4483 7.86207 19.9655 7.55172 20.2759C7.13793 20.6897 6.72414 20.7931 6.2069 20.7931H4.24138C4.03448 20.7931 3.82759 20.6897 3.72414 20.5862C3.62069 20.4828 3.51724 20.2759 3.51724 20.069V15.4138C3.51724 15.2069 3.62069 15 3.72414 14.8966C3.82759 14.7931 4.03448 14.6897 4.24138 14.6897H6.2069C6.72414 14.6897 7.24138 14.8966 7.55172 15.2069C7.96552 15.6207 8.06896 16.0345 8.06896 16.5517C8.06896 16.9655 7.96552 17.3793 7.65517 17.6897C7.96552 18.1034 8.06896 18.4138 8.06896 18.931Z" fill="#00abc7"/>
<path d="M6.2069 18.5172H5.06897V19.2414H6.2069C6.31034 19.2414 6.41379 19.2414 6.51724 19.1379C6.62069 19.0345 6.62069 18.931 6.62069 18.8276C6.62069 18.7241 6.62069 18.6207 6.51724 18.5172C6.41379 18.5172 6.31034 18.5172 6.2069 18.5172Z" fill="#00abc7"/>
<path d="M20.7931 12.1034H15.931C14.1724 12.1034 12.7241 13.5517 12.7241 15.3103V20.1724C12.7241 21.931 14.1724 23.3793 15.931 23.3793H20.7931C22.5517 23.3793 24 21.931 24 20.1724V15.3103C24 13.4483 22.5517 12.1034 20.7931 12.1034ZM17.4828 18.8276C17.7931 19.1379 18.1034 19.2414 18.5172 19.2414C18.931 19.2414 19.3448 19.1379 19.5517 18.8276C19.5517 18.8276 19.5517 18.8276 19.6552 18.7241C19.7586 18.6207 19.9655 18.5172 20.1724 18.5172C20.3793 18.5172 20.5862 18.6207 20.6897 18.7241C20.7931 18.8276 20.8966 19.0345 20.8966 19.2414C20.8966 19.4483 20.7931 19.6552 20.6897 19.7586C20.6897 19.7586 20.6897 19.7586 20.5862 19.8621C19.9655 20.4828 19.2414 20.7931 18.4138 20.7931C17.5862 20.7931 16.8621 20.4828 16.2414 19.8621C15.8276 19.3448 15.5172 18.6207 15.5172 17.7931C15.5172 16.9655 15.8276 16.2414 16.4483 15.6207C17.069 15 17.7931 14.6897 18.6207 14.6897C19.4483 14.6897 20.1724 15 20.7931 15.6207C20.7931 15.6207 20.7931 15.6207 20.8966 15.6207C21 15.7241 21.1034 15.931 21.1034 16.1379C21.1034 16.3448 21 16.5517 20.8966 16.6552C20.7931 16.7586 20.5862 16.8621 20.3793 16.8621C20.1724 16.8621 19.9655 16.7586 19.8621 16.6552C19.8621 16.6552 19.8621 16.6552 19.8621 16.5517C19.5517 16.2414 19.2414 16.1379 18.8276 16.1379C18.4138 16.1379 18 16.2414 17.7931 16.5517C17.4828 16.8621 17.3793 17.1724 17.3793 17.5862C17.069 18.2069 17.1724 18.5172 17.4828 18.8276Z" fill="#00abc7"/>
</svg>
