<svg width="24" height="24" viewBox="0 0 24 24" fill="none" xmlns="http://www.w3.org/2000/svg">
<path d="M4.67027 1.42703C7.00541 0.908108 8.82162 0.12973 10.8973 0C11.8054 0 12.5838 0.12973 13.3622 0.648649C14.1405 1.16757 14.7892 1.16757 15.6973 1.03784C17.5135 0.648649 18.9405 1.2973 19.7189 2.98378C20.8865 5.96757 22.0541 8.95135 23.0919 11.9351C23.6108 13.3622 23.0919 14.5297 21.6649 15.0486C21.1459 15.3081 20.4973 15.4378 20.4973 16.2162C19.9784 20.627 17.2541 22.8324 12.973 23.4811C12.5838 23.4811 12.0649 23.7405 11.6757 23.7405C11.5459 23.7405 11.4162 23.7405 11.2865 23.6108C12.0649 22.4432 12.5838 21.4054 12.8432 19.9784C12.973 18.6811 13.7514 17.2541 11.6757 16.4757C11.2865 16.3459 11.1568 15.6973 10.8973 15.3081C9.85946 12.7135 8.82162 9.85946 7.78379 7.13513C7.65406 6.61622 7.3946 5.96757 7.52433 5.70811C8.69189 3.37297 6.87568 2.85405 5.57838 1.94595C5.44865 1.81622 5.18919 1.68649 4.67027 1.42703ZM16.2162 2.07568C14.4 2.46486 12.4541 2.98378 10.5081 3.5027C9.47027 3.76216 9.21081 4.54054 9.6 5.57838C10.6378 8.56216 11.8054 11.5459 12.8432 14.4C13.2324 15.5676 14.0108 15.9568 15.3081 15.5676C16.9946 15.0486 18.6811 14.5297 20.4973 14.1405C21.9243 13.8811 22.1838 13.1027 21.7946 11.9351C20.7568 9.08108 19.7189 6.22703 18.5514 3.37297C18.1622 2.46486 17.3838 2.07568 16.2162 2.07568Z" fill="#00abc7"/>
<path d="M0 9.21083C0 7.13515 0.259459 5.57839 1.03784 4.02164C1.55676 2.9838 2.33513 2.33515 3.63243 2.33515C5.31892 2.33515 5.70811 3.11353 5.31892 4.67028C3.89189 10.8973 5.31892 16.2162 9.6 20.7568C10.1189 21.2757 11.4162 21.4054 10.6378 22.573C9.98919 23.6108 8.95135 24.2595 7.52432 23.8703C6.35676 23.4811 5.31892 22.7027 4.54054 21.6649C1.55676 17.9027 0.259459 13.4919 0 9.21083Z" fill="#00abc7"/>
<path d="M18.4216 4.41081C18.2919 5.31892 17.9027 6.22703 17.3838 6.87568C16.8649 7.78378 17.2541 9.34054 16.2162 9.47027C15.4378 9.6 14.4 8.82162 13.4919 8.43243C12.8432 8.17297 12.0649 8.04324 12.4541 7.39459C12.7135 6.74595 13.3622 7.0054 13.7514 7.26486C15.1784 8.04324 16.2162 7.78378 16.6054 6.0973C16.7351 5.44865 17.2541 4.8 17.5135 4.15135C17.6432 4.02162 17.9027 3.89189 18.0324 3.89189C18.2919 4.02162 18.2919 4.28108 18.4216 4.41081Z" fill="#00abc7"/>
</svg>
