<svg width="808" height="343" viewBox="0 0 808 343" fill="none" xmlns="http://www.w3.org/2000/svg">
<g clip-path="url(#clip0)">
<path d="M444.53 103.419H421.833C411.782 103.419 407.567 96.2864 407.567 89.1541C407.567 82.0217 412.754 74.8894 421.833 74.8894H498.353C507.432 74.8894 512.62 82.0217 512.62 89.1541C512.62 96.2864 508.405 103.419 498.353 103.419H475.657V207.81C475.657 218.184 468.848 224.02 460.093 224.02C451.014 224.02 444.53 218.184 444.53 207.81V103.419V103.419Z" fill="white"/>
<path d="M604.703 167.934C604.703 199.057 583.303 225.641 551.204 225.641C519.104 225.641 497.705 199.381 497.705 167.934C497.705 137.459 519.753 109.903 551.204 109.903C582.655 109.903 604.703 137.459 604.703 167.934ZM527.21 167.934C527.21 182.198 534.668 198.084 550.88 198.084C567.092 198.084 574.549 182.198 574.549 167.934C574.549 153.669 567.416 137.459 550.88 137.459C534.344 137.459 527.21 153.345 527.21 167.934Z" fill="white"/>
<path d="M616.051 131.624C615.079 129.354 614.755 127.085 614.755 123.843C614.755 116.387 622.536 110.875 629.021 110.875C636.154 110.875 641.342 114.766 643.936 121.574L664.687 177.984L686.735 121.574C689.329 114.766 694.517 110.875 701.65 110.875C707.811 110.875 715.917 116.387 715.917 123.843C715.917 127.085 715.592 129.354 714.62 131.624L664.363 256.439C661.769 262.599 657.23 268.435 650.096 268.435C640.045 268.435 634.533 261.951 634.533 255.467C634.533 252.549 635.506 249.307 636.478 246.714L649.448 214.294L616.051 131.624Z" fill="white"/>
<path d="M793.085 144.592C787.573 144.592 775.901 135.838 766.173 135.838C760.661 135.838 756.122 138.432 756.122 144.267C756.122 158.208 808 156.263 808 190.303C808 210.404 791.14 225.317 765.525 225.317C748.665 225.317 723.698 215.915 723.698 202.299C723.698 197.76 728.238 189.007 736.668 189.007C748.34 189.007 753.528 199.057 767.795 199.057C776.873 199.057 779.791 196.139 779.791 190.628C779.791 177.011 727.913 178.957 727.913 144.592C727.913 123.843 744.774 109.578 768.443 109.578C783.358 109.578 805.73 116.387 805.73 131.3C805.082 138.432 799.894 144.592 793.085 144.592Z" fill="white"/>
<path d="M403.027 216.563L367.037 85.5879C364.443 75.2136 355.689 66.4603 342.071 69.3781L189.679 93.0444C173.143 96.9348 171.522 109.903 170.873 114.441L157.904 205.865L185.14 325.493C187.409 335.868 196.812 343 207.188 343C208.485 343 369.631 312.85 369.631 312.85C384.546 309.932 386.167 299.882 386.491 298.261L402.379 235.367C402.703 232.449 405.621 225.641 403.027 216.563ZM224.372 257.736L192.597 115.09L344.989 91.4234L382.6 227.91L224.372 257.736Z" fill="white"/>
<path d="M179.628 189.007L21.0754 159.505L58.687 22.6938L211.079 46.3601L195.839 114.766L242.205 107.633L233.451 45.7117C232.478 41.173 230.857 28.2051 214.645 24.3147L62.2536 0.648392C48.3114 -2.26938 39.557 6.48393 37.2873 16.8582L0.972684 147.509C-1.62122 156.587 0.972684 163.719 1.9454 166.637L17.833 229.531C18.4815 231.152 19.7785 241.526 34.6934 244.12C34.6934 244.12 195.839 274.27 197.136 274.27C207.512 274.27 216.591 267.138 219.185 256.764L221.778 246.065L194.218 122.546L179.628 189.007Z" fill="white"/>
<path d="M105.701 62.8941C109.592 56.4102 116.401 52.1957 124.183 53.4924C131.965 55.1134 136.828 61.2732 137.801 69.0539L153.04 147.509C153.364 150.103 153.364 152.372 153.04 153.345C152.067 159.181 146.231 162.422 140.719 161.126C134.559 159.829 131.965 155.939 131.316 151.4L129.695 136.163L88.1926 128.382L81.0594 141.35C78.7897 145.564 74.8989 148.482 68.7384 147.185C62.9021 146.213 58.3628 140.701 59.6597 134.542C59.984 132.272 61.2809 130.651 61.6051 129.679L105.701 62.8941ZM98.244 108.93L126.777 114.441L119.644 76.8346L98.244 108.93Z" fill="white"/>
<path d="M283.384 146.537L253.23 151.076C246.745 152.372 240.909 148.806 239.612 141.35C238.315 133.893 242.854 128.382 249.339 127.085L308.026 118.008C310.295 117.683 316.78 117.683 317.753 124.816C318.401 128.382 318.077 130.327 316.456 133.569L286.302 200.353L320.347 193.87C326.832 192.573 332.668 196.139 333.965 203.595C335.262 211.052 330.722 216.563 324.238 217.86L264.254 229.207C258.417 230.18 253.23 228.234 252.257 222.075C251.608 219.157 252.581 215.915 253.23 214.294L283.384 146.537Z" fill="white"/>
</g>
<defs>
<clipPath id="clip0">
<rect width="808" height="343" fill="white"/>
</clipPath>
</defs>
</svg>
